<?xml version="1.0" encoding="UTF-8" standalone="no"?>
<!-- Created with Inkscape (http://www.inkscape.org/) -->

<svg
   width="200"
   height="300"
   viewBox="0 0 52.916665 79.375002"
   version="1.1"
   id="svg135"
   sodipodi:docname="newdesign.svg"
   xmlns:inkscape="http://www.inkscape.org/namespaces/inkscape"
   xmlns:sodipodi="http://sodipodi.sourceforge.net/DTD/sodipodi-0.dtd"
   xmlns:xlink="http://www.w3.org/1999/xlink"
   xmlns="http://www.w3.org/2000/svg"
   xmlns:svg="http://www.w3.org/2000/svg">
  <sodipodi:namedview
     id="namedview339"
     pagecolor="#505050"
     bordercolor="#eeeeee"
     borderopacity="1"
     inkscape:showpageshadow="0"
     inkscape:pageopacity="0"
     inkscape:pagecheckerboard="0"
     inkscape:deskcolor="#505050"
     showgrid="false" />
  <defs
     id="defs132">
    <rect
       x="121.32902"
       y="265.71432"
       width="102.05245"
       height="23.434265"
       id="rect8421" />
    <rect
       x="24.946156"
       y="82.775879"
       width="157.99231"
       height="71.436714"
       id="rect1306" />
    <rect
       x="24.946156"
       y="82.775879"
       width="258.53287"
       height="95.248955"
       id="rect1466" />
    <filter
       style="color-interpolation-filters:sRGB"
       id="filter8237"
       x="-0.0084325126"
       y="-0.011309428"
       width="1.0168496"
       height="1.0225913">
      <feGaussianBlur
         stdDeviation="0.1311315"
         id="feGaussianBlur8239" />
    </filter>
    <mask
       maskUnits="userSpaceOnUse"
       id="mask43179">
      <path
         style="opacity:1;fill:#ffffff;fill-opacity:1;stroke:none;stroke-width:0.1;stroke-linecap:round;stroke-linejoin:round;stroke-dasharray:none;stroke-opacity:1"
         d="m 9.9755087,58.296723 1.7563393,0.225001 -0.268761,0.818793 c 0,0 -0.443773,-0.250013 -1.081305,-0.212513 -0.4542452,0.02672 -0.4062712,-0.831292 -0.4062712,-0.831292 z"
         id="path43181" />
    </mask>
    <clipPath
       clipPathUnits="userSpaceOnUse"
       id="clipPath48264">
      <path
         style="display:inline;opacity:1;fill:#2e1464;fill-opacity:1;stroke:none;stroke-width:0.1;stroke-linecap:round;stroke-linejoin:round;stroke-dasharray:none;stroke-opacity:1"
         d="m 5.5660848,75.751791 c 0.7345995,-0.704631 5.9826482,2.078042 9.9780052,-0.503029 0.313648,0.17998 0.08869,0.173413 0.275149,0.673399 0.486481,1.304531 1.132519,4.596281 1.132519,4.596281 L 3.1982603,80.252745 c 0,0 1.0320184,-2.363862 1.9073246,-3.662067 0.1655099,-0.245475 -0.2740996,-0.134257 0.4604999,-0.838887 z"
         id="path48266" />
    </clipPath>
    <clipPath
       clipPathUnits="userSpaceOnUse"
       id="clipPath48348">
      <path
         style="opacity:1;fill:#55233e;fill-opacity:1;stroke:none;stroke-width:0.1;stroke-linecap:round;stroke-linejoin:round;stroke-dasharray:none;stroke-opacity:1"
         d="m 16.150824,66.353383 c 0,0 3.609787,3.034403 0.500026,3.150161 -2.108149,0.07847 -1.550079,1.100058 -1.050054,6.400326 0.08025,0.85067 1.75009,4.150215 1.150059,4.600237 -0.60003,0.450022 -6.700342,0.05 -6.700342,0.05 l -6.500332,-0.05 c 0,0 0.5000255,-2.50013 1.8000919,-4.200213 1.0389537,-1.35863 0.9500487,-5.600287 0.9500487,-5.600287 0,0 -4.2502171,-0.100005 -3.7001891,-1.650085 0.5500284,-1.550077 0.4500231,-3.450177 2.7501404,-3.250168 2.0080896,0.174617 8.7504471,-0.60003 8.7504471,-0.60003 z"
         id="path48350" />
    </clipPath>
    <clipPath
       clipPathUnits="userSpaceOnUse"
       id="clipPath49217">
      <use
         x="0"
         y="0"
         xlink:href="#g49213"
         id="use49219" />
    </clipPath>
  </defs>
  <g
     id="layer1">
    <rect
       style="opacity:1;fill:#404040;fill-opacity:1;stroke:#000000;stroke-width:0.108;stroke-linecap:round;stroke-linejoin:round;stroke-dasharray:none"
       id="rect482"
       width="59.581089"
       height="85.096664"
       x="-2.5829055"
       y="-2.1596606"
       ry="0" />
    <text
       xml:space="preserve"
       transform="matrix(0.26458333,0,0,0.26458333,-0.50002551,-18.600949)"
       id="text1304"
       style="font-size:34.56px;font-family:'Clash Text';-inkscape-font-specification:'Clash Text, Normal';text-align:center;white-space:pre;shape-inside:url(#rect1306);opacity:1;fill:#404040;fill-opacity:1;stroke:#000000;stroke-width:1.41354;stroke-linecap:round;stroke-linejoin:round"><tspan
         x="34.631329"
         y="114.74339"
         id="tspan65570"><tspan
           style="font-family:'Sigmar One';-inkscape-font-specification:'Sigmar One';fill:#ffffff;stroke:none"
           id="tspan65568">Design
</tspan></tspan><tspan
         x="24.945312"
         y="186.18089"
         id="tspan65574"><tspan
           style="font-family:'Sigmar One';-inkscape-font-specification:'Sigmar One';fill:#ffffff;stroke:none"
           id="tspan65572">U</tspan></tspan></text>
    <text
       xml:space="preserve"
       transform="matrix(0.26458333,0,0,0.26458333,-14.10072,-10.300526)"
       id="text1464"
       style="font-size:34.56px;font-family:'Clash Text';-inkscape-font-specification:'Clash Text, Normal';text-align:center;white-space:pre;shape-inside:url(#rect1466);opacity:1;fill:#404040;fill-opacity:1;stroke:#000000;stroke-width:1.41354;stroke-linecap:round;stroke-linejoin:round"><tspan
         x="62.161356"
         y="114.74339"
         id="tspan65578"><tspan
           style="font-family:'Sigmar One';-inkscape-font-specification:'Sigmar One';fill:#ffffff;stroke:none"
           id="tspan65576">UPDATE!
</tspan></tspan></text>
    <path
       style="opacity:1;fill:#ffffff;fill-opacity:1;stroke:#929292;stroke-width:0.373999;stroke-linecap:round;stroke-linejoin:round;stroke-opacity:1"
       d="M -3.5001786,21.501097 H 59.303024"
       id="path1531" />
    <path
       style="opacity:1;fill:#2d88a2;fill-opacity:1;stroke:#64b4c0;stroke-width:0.373999;stroke-linecap:round;stroke-linejoin:round;stroke-opacity:1"
       d="m 33.301699,29.251492 c 3.200162,-1.250064 6.45033,-2.250115 7.200368,-1.150059 0.750038,1.100058 -0.900046,9.300474 3.500178,3.300169 4.400225,-6.000306 1.850094,-6.450329 4.450226,-5.250268 2.600134,1.20006 -4.50023,10.100514 -6.200315,9.400479 -1.700088,-0.700034 -3.000153,-0.400021 -2.900148,-2.600131 0.100004,-2.200114 0.200009,-4.150212 -0.100005,-3.9002 -0.300016,0.250013 -4.450228,1.550078 -4.950253,1.300065 -0.500026,-0.250013 -1.000051,-1.100055 -1.000051,-1.100055 z"
       id="path2858" />
    <text
       xml:space="preserve"
       style="font-style:normal;font-variant:normal;font-weight:normal;font-stretch:normal;font-size:4.572px;font-family:'Sigmar One';-inkscape-font-specification:'Sigmar One';text-align:center;text-anchor:middle;opacity:1;fill:#ffffff;fill-opacity:1;stroke:none;stroke-width:0.373999;stroke-linecap:round;stroke-linejoin:round;stroke-opacity:1"
       x="2.3545079"
       y="29.724264"
       id="text5642"><tspan
         id="tspan5640"
         style="font-size:4.064px;text-align:start;text-anchor:start;stroke-width:0.374"
         x="2.3545079"
         y="29.724264">ES Wird in </tspan><tspan
         style="font-size:4.064px;text-align:start;text-anchor:start;stroke-width:0.374"
         x="2.3545079"
         y="35.439262"
         id="tspan5644">Nächster Zeit</tspan><tspan
         style="font-size:4.064px;text-align:start;text-anchor:start;stroke-width:0.374"
         x="2.3545079"
         y="41.154263"
         id="tspan5650">einige Gründliche</tspan><tspan
         style="font-size:4.064px;text-align:start;text-anchor:start;stroke-width:0.374"
         x="2.3545079"
         y="46.869263"
         id="tspan5654">Design Updates </tspan><tspan
         style="font-size:4.064px;text-align:start;text-anchor:start;stroke-width:0.374"
         x="2.3545079"
         y="52.584263"
         id="tspan5656">Geben!</tspan><tspan
         style="stroke-width:0.374"
         x="2.3545079"
         y="58.299263"
         id="tspan5648" /></text>
    <path
       style="opacity:1;fill:none;fill-opacity:1;stroke:#ffffff;stroke-width:0.373999;stroke-linecap:round;stroke-linejoin:round;stroke-opacity:1;filter:url(#filter8237)"
       d="m 56.934187,60.613769 c 0,0 -7.626069,-17.537053 -12.675371,3.657042 -2.34983,9.863248 -7.173691,-7.800414 -16.387338,3.733284 C 18.678921,79.511394 18.246609,52.191401 8.1631581,65.761341 0.96424436,75.449377 -2.2871223,45.115715 -2.2871223,45.115715 c 0,0 -3.3160559,-18.413244 9.5443466,-14.562475 22.4876487,6.733438 33.2522477,-10.130005 33.9591537,-1.248235 0.577831,7.260037 -6.765231,11.027459 4.747906,7.042138 3.677145,-1.272859 10.545114,24.113212 10.545114,24.113212 z"
       id="path5664" />
    <path
       style="opacity:1;fill:none;fill-opacity:1;stroke:#eb4fce;stroke-width:0.373999;stroke-linecap:round;stroke-linejoin:round;stroke-opacity:1"
       d="m 56.934187,60.613769 c 0,0 -7.626069,-17.537053 -12.675371,3.657042 -2.34983,9.863248 -7.173691,-7.800414 -16.387338,3.733284 C 18.678921,79.511394 18.246609,52.191401 8.1631581,65.761341 0.96424436,75.449377 -2.2871223,45.115715 -2.2871223,45.115715 c 0,0 -3.3160559,-18.413244 9.5443466,-14.562475 22.4876487,6.733438 33.2522477,-10.130005 33.9591537,-1.248235 0.577831,7.260037 -6.765231,11.027459 4.747906,7.042138 3.677145,-1.272859 10.545114,24.113212 10.545114,24.113212 z"
       id="path8235" />
    <path
       style="opacity:1;fill:#757575;fill-opacity:1;stroke:#676767;stroke-width:0.1;stroke-linecap:butt;stroke-linejoin:round;stroke-dasharray:none;stroke-opacity:1"
       d="m 6.470357,68.858034 c 0,0 1.7325001,0.530357 2.0507142,0.459645"
       id="path55810" />
    <text
       xml:space="preserve"
       style="font-style:normal;font-variant:normal;font-weight:normal;font-stretch:normal;font-size:2.286px;font-family:'Sigmar One';-inkscape-font-specification:'Sigmar One';text-align:start;text-anchor:start;opacity:1;fill:#ffffff;fill-opacity:1;stroke:#3a6595;stroke-width:0.1;stroke-linecap:round;stroke-linejoin:round;stroke-dasharray:none;stroke-opacity:1"
       x="0.56571442"
       y="2.1214285"
       id="text65126"><tspan
         id="tspan65124"
         style="font-size:2.286px;fill:#ffffff;fill-opacity:1;stroke:#ffffff;stroke-width:0.1;stroke-opacity:1"
         x="0.56571442"
         y="2.1214285">CONTROLLER:</tspan></text>
  </g>
  <g
     id="layer2">
    <path
       style="opacity:1;fill:#b2972a;fill-opacity:1;stroke:#7230ae;stroke-width:0.373999;stroke-linecap:round;stroke-linejoin:round;stroke-opacity:1"
       d="M 31.851623,69.703555 31.051584,63.353232"
       id="path8652" />
    <path
       style="opacity:1;fill:#b2972a;fill-opacity:1;stroke:#7230ae;stroke-width:0.373999;stroke-linecap:round;stroke-linejoin:round;stroke-opacity:1"
       d="m 48.252462,69.703555 0.800039,-6.350323"
       id="path12875" />
    <rect
       style="opacity:1;fill:#743d1d;fill-opacity:1;stroke:#583d26;stroke-width:0.373999;stroke-linecap:round;stroke-linejoin:round;stroke-opacity:1"
       id="rect8477"
       width="23.506226"
       height="5.2919412"
       x="28.572168"
       y="69.712746"
       rx="0.0062503186"
       ry="0.0062503186" />
    <path
       style="opacity:1;fill:#743d1d;fill-opacity:1;stroke:#583d26;stroke-width:0.373999;stroke-linecap:round;stroke-linejoin:round;stroke-opacity:1"
       d="m 28.576457,70.678605 h 1.850094"
       id="path8550" />
    <path
       style="opacity:1;fill:#743d1d;fill-opacity:1;stroke:#583d26;stroke-width:0.373999;stroke-linecap:round;stroke-linejoin:round;stroke-opacity:1"
       d="m 28.676462,74.203784 h 2.850147"
       id="path8553" />
    <path
       style="opacity:1;fill:#743d1d;fill-opacity:1;stroke:#583d26;stroke-width:0.373999;stroke-linecap:round;stroke-linejoin:round;stroke-opacity:1"
       d="m 34.576763,70.553598 h 2.775143"
       id="path8555" />
    <path
       style="opacity:1;fill:#743d1d;fill-opacity:1;stroke:#583d26;stroke-width:0.373999;stroke-linecap:round;stroke-linejoin:round;stroke-opacity:1"
       d="m 38.276953,74.303791 h 1.500076"
       id="path8557" />
    <path
       style="opacity:1;fill:#743d1d;fill-opacity:1;stroke:#583d26;stroke-width:0.373999;stroke-linecap:round;stroke-linejoin:round;stroke-opacity:1"
       d="m 45.327313,74.12878 h 0.850043 l 0.252465,0.145761 0.286287,-0.165287 h 0.536303"
       id="path8559" />
    <path
       style="opacity:1;fill:#743d1d;fill-opacity:1;stroke:#583d26;stroke-width:0.373999;stroke-linecap:round;stroke-linejoin:round;stroke-opacity:1"
       d="M 48.277462,70.428593 H 50.20256"
       id="path8561" />
    <path
       style="opacity:1;fill:#743d1d;fill-opacity:1;stroke:#583d26;stroke-width:0.373999;stroke-linecap:round;stroke-linejoin:round;stroke-opacity:1"
       d="M 52.052656,72.028674 H 47.552424"
       id="path8563" />
    <path
       style="opacity:1;fill:#743d1d;fill-opacity:1;stroke:#583d26;stroke-width:0.373999;stroke-linecap:round;stroke-linejoin:round;stroke-opacity:1"
       d="M 52.102657,74.378793 49.902546,74.253788"
       id="path8565" />
    <path
       style="opacity:1;fill:#743d1d;fill-opacity:1;stroke:#583d26;stroke-width:0.373999;stroke-linecap:round;stroke-linejoin:round;stroke-opacity:1"
       d="M 52.027653,70.628602 H 51.252614"
       id="path8567" />
    <path
       style="opacity:1;fill:#743d1d;fill-opacity:1;stroke:#583d26;stroke-width:0.373999;stroke-linecap:round;stroke-linejoin:round;stroke-opacity:1"
       d="m 42.177152,70.828613 1.125056,0.05"
       id="path8569" />
    <path
       style="opacity:1;fill:#743d1d;fill-opacity:1;stroke:#583d26;stroke-width:0.373999;stroke-linecap:round;stroke-linejoin:round;stroke-opacity:1"
       d="m 28.626461,72.603703 c 0.150006,-0.025 1.475073,-0.175009 1.475073,-0.175009"
       id="path8571" />
    <path
       style="opacity:1;fill:#743d1d;fill-opacity:1;stroke:#583d26;stroke-width:0.373999;stroke-linecap:round;stroke-linejoin:round;stroke-opacity:1"
       d="m 31.701618,70.553598 0.800039,0.225012"
       id="path8573" />
    <path
       style="opacity:1;fill:#743d1d;fill-opacity:1;stroke:#583d26;stroke-width:0.373999;stroke-linecap:round;stroke-linejoin:round;stroke-opacity:1"
       d="m 34.426755,74.278788 0.825042,-0.025"
       id="path8575" />
    <text
       xml:space="preserve"
       transform="matrix(0.26458333,0,0,0.26458333,-2.9001479,0)"
       id="text8419"
       style="font-style:normal;font-variant:normal;font-weight:normal;font-stretch:normal;font-size:15.36px;font-family:'Sigmar One';-inkscape-font-specification:'Sigmar One';text-align:start;white-space:pre;shape-inside:url(#rect8421);opacity:1;fill:#b2972a;fill-opacity:1;stroke:none;stroke-width:1.41354;stroke-linecap:round;stroke-linejoin:round;stroke-opacity:1"><tspan
         x="121.32812"
         y="278.62503"
         id="tspan65580">Content?</tspan></text>
    <path
       style="opacity:1;fill:#b2972a;fill-opacity:1;stroke:#7f288e;stroke-width:0.373999;stroke-linecap:round;stroke-linejoin:round;stroke-opacity:1"
       d="m 29.717679,63.253929 h 2.722499"
       id="path12881" />
    <path
       style="opacity:1;fill:#ce316f;fill-opacity:1;stroke:#7f288e;stroke-width:0.373999;stroke-linecap:round;stroke-linejoin:round;stroke-opacity:1"
       d="m 29.985891,63.147857 c 0,0 -0.424286,-0.247502 -0.38893,-0.689464 0.03536,-0.441965 0.282858,-0.583393 0.318215,-1.007679 0.03536,-0.424286 -0.01768,0.813213 0.212143,0.7425 0.229819,-0.07071 0.194463,-0.35357 0.08839,-0.441965 -0.106072,-0.08839 0.07071,0.07071 0.194463,-0.141428 0.123751,-0.212143 0.106071,-0.406606 0.176787,-0.512678 0.07071,-0.106071 -0.07072,0.441963 0.123751,0.141428 0.194463,-0.300535 -0.194467,1.007679 0.176784,0.353571 0.37125,-0.654106 -0.2475,1.573392 0.194466,0.583393 0.441962,-0.99 0.159107,0.03536 0.424286,-0.583393 0.265178,-0.61875 0.03536,-0.813213 0.03536,-1.025356 0,-0.212143 0.194463,0.830892 0.300535,0.459642 0.106071,-0.37125 0,1.237499 0.194466,0.654108 0.194463,-0.583393 -0.212143,1.007677 0.03536,0.830893 0.247499,-0.176787 0.265179,-0.601073 0.265179,-0.601073 0,0 0.601072,0.795536 0,1.043035 -0.601073,0.247502 -1.149107,0.141431 -1.149107,0.141431 z"
       id="path26491" />
    <path
       style="opacity:1;fill:#ce316f;fill-opacity:1;stroke:#7f288e;stroke-width:0.373999;stroke-linecap:round;stroke-linejoin:round;stroke-opacity:1"
       d="m 50.114744,63.147857 c 0,0 0.424286,-0.247502 0.38893,-0.689464 -0.03536,-0.441965 -0.282858,-0.583393 -0.318215,-1.007679 -0.03536,-0.424286 0.01768,0.813213 -0.212143,0.7425 -0.229819,-0.07071 -0.194463,-0.35357 -0.08839,-0.441965 0.106072,-0.08839 -0.07071,0.07071 -0.194463,-0.141428 -0.123751,-0.212143 -0.106071,-0.406606 -0.176787,-0.512678 -0.07071,-0.106071 0.07072,0.441963 -0.123751,0.141428 -0.194463,-0.300535 0.194467,1.007679 -0.176784,0.353571 -0.37125,-0.654106 0.2475,1.573392 -0.194466,0.583393 -0.441962,-0.99 -0.159107,0.03536 -0.424286,-0.583393 -0.265178,-0.61875 -0.03536,-0.813213 -0.03536,-1.025356 0,-0.212143 -0.194463,0.830892 -0.300535,0.459642 -0.106071,-0.37125 0,1.237499 -0.194466,0.654108 -0.194463,-0.583393 0.212143,1.007677 -0.03536,0.830893 -0.247499,-0.176787 -0.265179,-0.601073 -0.265179,-0.601073 0,0 -0.601072,0.795536 0,1.043035 0.601073,0.247502 1.149107,0.141431 1.149107,0.141431 z"
       id="path27223" />
  </g>
  <g
     id="layer3">
    <path
       style="display:inline;opacity:1;fill:#140534;fill-opacity:1;stroke:#200752;stroke-width:0.2;stroke-linecap:round;stroke-linejoin:round;stroke-dasharray:none;stroke-opacity:1"
       d="m 24.569146,74.091278 c 0,0 0.897111,0.528683 0.587527,0.900047 C 24.84709,75.362689 23.7316,74.278788 23.7316,74.278788 Z"
       id="path61850" />
    <path
       style="opacity:1;fill:#190642;fill-opacity:1;stroke:#24095d;stroke-width:0.2;stroke-linecap:round;stroke-linejoin:round;stroke-dasharray:none;stroke-opacity:1"
       d="m 25.276289,74.091278 c 0,0 0.897111,0.528683 0.587527,0.900047 -0.309583,0.371364 -1.425073,-0.712537 -1.425073,-0.712537 z"
       id="path61846" />
    <path
       style="opacity:1;fill:#1f0852;fill-opacity:1;stroke:#2a0b70;stroke-width:0.240177;stroke-linecap:round;stroke-linejoin:round;stroke-dasharray:none;stroke-opacity:1"
       d="m 22.123371,73.863964 c 0,0 0.98467,-0.468713 1.538547,-0.410123 0.553876,0.05859 1.575086,0.07147 2.075113,-0.03321 0.407986,-0.08541 1.592638,-0.203355 1.302955,0.38866 -0.138565,0.283183 -2.410619,0.508413 -2.525139,0.719483 -0.133596,0.24623 -0.177095,0.46141 0.795237,0.567142 0.514684,0.04526 0.755327,0.949796 -0.78514,0.544098 -0.909665,-0.100005 -1.539986,-0.838622 -2.309259,-0.457792 -0.769274,0.380831 -0.09231,-1.318257 -0.09231,-1.318257 z"
       id="path59507" />
    <path
       style="opacity:1;fill:#757575;fill-opacity:1;stroke:#676767;stroke-width:0.2;stroke-linecap:round;stroke-linejoin:round;stroke-dasharray:none;stroke-opacity:1"
       d="m 17.175876,70.028572 c 0,0 1.150059,-0.100005 1.250064,0.37502 0.100005,0.475022 0.275014,3.275166 0.275014,3.275166 l -0.900046,1.225063 -1.300066,-3.70019 z"
       id="path58156" />
    <path
       style="opacity:1;fill:#1b0e79;fill-opacity:1;stroke:#190d6e;stroke-width:0.1;stroke-linecap:round;stroke-linejoin:round;stroke-dasharray:none;stroke-opacity:1"
       d="m 17.873036,68.78732 c 0.193691,0.387383 0.795535,4.030715 0.671785,4.490359 -0.123749,0.459642 2.583673,-0.354093 3.432245,0.193941 0.848571,0.548034 0.272501,1.906773 0.272501,1.906773 0,0 -4.721822,0.864312 -5.594576,0.232117 -1.157165,-0.838214 -1.233731,-2.251763 -1.410517,-2.994263 -0.176786,-0.7425 0.106071,-3.040716 0.106071,-3.040716 z"
       id="path57594" />
    <path
       style="opacity:1;fill:none;fill-opacity:1;stroke:#833f11;stroke-width:0.199398;stroke-linecap:round;stroke-linejoin:round;stroke-dasharray:none;stroke-opacity:1"
       d="m 14.950462,71.778716 c 0,0 2.382601,0.575774 3.524265,-0.27537"
       id="path58069"
       clip-path="none" />
    <path
       style="opacity:1;fill:#55233e;fill-opacity:1;stroke:#711b49;stroke-width:0.1;stroke-linecap:round;stroke-linejoin:round;stroke-dasharray:none;stroke-opacity:1"
       d="m 16.150824,66.353384 c 0,0 3.609787,3.034401 0.500026,3.150161 -2.108149,0.07847 -1.550079,1.100057 -1.050054,6.400326 0.08025,0.850668 -1.835487,1.400909 -1.800092,2.150111 0.02126,0.450022 -6.7003415,0.05 -6.7003415,0.05 L 5.8502984,78.80402 c 0,0 -1.8000919,-0.800042 -0.5000254,-2.500127 1.0389536,-1.35863 0.9500486,-5.600286 0.9500486,-5.600286 0,0 -4.2502171,-0.100005 -3.7001891,-1.650085 0.5500283,-1.550077 0.450023,-3.450177 2.7501404,-3.250167 2.0080896,0.174617 8.7504471,-0.60003 8.7504471,-0.60003 z"
       id="path43254" />
    <path
       style="opacity:0.294416;fill:none;fill-opacity:1;stroke:#3a6595;stroke-width:0.1;stroke-linecap:round;stroke-linejoin:round;stroke-dasharray:none;stroke-opacity:1"
       d="m 17.254286,70.077856 c 0,0 0.319483,0.899657 0.319483,1.192329"
       id="path62497" />
    <g
       id="g49215"
       clip-path="url(#clipPath49217)">
      <g
         id="g49213">
        <path
           style="opacity:1;fill:#55233e;fill-opacity:1;stroke:none;stroke-width:0.1;stroke-linecap:round;stroke-linejoin:round;stroke-dasharray:none;stroke-opacity:1"
           d="m 16.150824,66.353384 c 0,0 3.609787,3.034401 0.500026,3.150161 -2.108149,0.07847 -1.550079,1.100057 -1.050054,6.400326 0.08025,0.850668 -0.80004,1.350071 -1.400071,1.800093 -0.60003,0.450022 -2.450125,0.500023 -2.450125,0.500023 L 8.7004439,78.053982 c 0,0 -4.6377368,-0.05 -3.3376703,-1.750089 1.0389536,-1.35863 0.937548,-5.600286 0.937548,-5.600286 0,0 -4.2502171,-0.100005 -3.7001891,-1.650085 0.5500283,-1.550077 0.450023,-3.450177 2.7501404,-3.250167 2.0080896,0.174617 8.7504471,-0.60003 8.7504471,-0.60003 z"
           id="path49198" />
        <path
           style="opacity:1;fill:none;fill-opacity:1;stroke:#833f11;stroke-width:0.4;stroke-linecap:butt;stroke-linejoin:round;stroke-dasharray:none;stroke-opacity:1"
           d="m 5.6428655,75.766436 c 0,0 7.8282055,-2.789294 11.5053485,-8.446437"
           id="path48415" />
      </g>
    </g>
    <path
       style="display:inline;opacity:1;fill:#2e1464;fill-opacity:1;stroke:none;stroke-width:0.1;stroke-linecap:round;stroke-linejoin:round;stroke-dasharray:none;stroke-opacity:1"
       d="m 5.5660848,75.75179 c 0.7345995,-0.704631 5.9826482,2.078044 9.9780052,-0.503027 0.313648,0.17998 0.08869,0.173411 0.275149,0.673398 0.486481,1.30453 1.132519,4.596281 1.132519,4.596281 L 12.326509,80.63356 11.775293,80.119988 9.025421,80.106128 8.5166698,80.540603 3.4982755,80.377752 c 0,0 0.7320032,-2.488868 1.6073095,-3.787073 0.1655099,-0.245475 -0.2740997,-0.134257 0.4604998,-0.838889 z"
       id="path47163" />
    <path
       style="opacity:1;fill:none;fill-opacity:1;stroke:#833f11;stroke-width:0.4;stroke-linecap:butt;stroke-linejoin:round;stroke-dasharray:none;stroke-opacity:1"
       d="M 4.9920099,76.540112 C 7.0705547,77.539128 15.266116,78.012954 16.45849,75.243033"
       id="path48237"
       clip-path="url(#clipPath48264)" />
    <path
       style="opacity:1;fill:#1b0e79;fill-opacity:1;stroke:#190d6e;stroke-width:0.4;stroke-linecap:butt;stroke-linejoin:round;stroke-dasharray:none;stroke-opacity:1"
       d="m 3.2038047,67.567683 c -0.00129,0.07295 3.2812916,0.422521 2.503493,3.025795 -0.8023227,2.685355 -1.0047976,5.212234 -1.0047976,5.212234 0,0 0.8132144,3.005358 0.5657141,3.924644 -0.3603658,1.338501 -2.1214285,0.459645 -2.1214285,0.459645 0,0 -1.1667857,-1.980002 -0.7425,-3.783217 0.2436188,-1.035381 -0.9655206,-5.262332 0.799519,-8.839101 z"
       id="path49425" />
    <path
       style="opacity:1;fill:none;fill-opacity:1;stroke:#3b8f70;stroke-width:0.4;stroke-linecap:butt;stroke-linejoin:round;stroke-dasharray:none;stroke-opacity:1"
       d="m 2.3723035,67.066289 c 0,0 2.2499409,0.524441 3.2577513,1.450264 0.5935234,0.545239 0.7333431,1.330627 0.4504871,2.226874"
       id="path48337"
       clip-path="url(#clipPath48348)" />
    <path
       style="opacity:1;fill:#3f296b;fill-opacity:1;stroke:#3d1a6d;stroke-width:0.1;stroke-linecap:round;stroke-linejoin:round;stroke-dasharray:none;stroke-opacity:1"
       d="m 15.87581,62.278177 c 0,0 1.627303,-4.050768 1.356351,-5.061974 -0.270951,-1.011205 -4.252034,-5.751224 -7.106724,-4.103068 -2.8546897,1.648156 -3.3449383,5.793602 -3.3449383,5.793602 0,0 0.4948724,5.196533 -0.3551708,5.571551 -0.8500436,0.375021 -2.5001276,1.55008 -2.5001276,1.55008 0,0 1.8000917,1.350068 1.9000967,2.175111 0.1000051,0.825042 1.5500792,-1.100056 1.5500792,-1.100056 0,0 0.4500229,0.450022 0.825042,0.425021 0.3750191,-0.025 0.275014,1.025052 0.275014,1.025052 0,0 1.6250828,0.300016 2.1001068,0.05 0.475025,-0.250012 0.350018,-1.250063 0.450023,-1.175059 0.100005,0.075 1.500077,-0.075 1.825093,-0.150008 0.325017,-0.075 0.600031,1.025051 0.600031,1.025051 0,0 1.625083,0.100007 2.125108,-0.22501 0.500026,-0.325016 -0.225011,-1.35007 -0.225011,-1.35007 0,0 0.875045,-0.125005 0.925047,-0.275014 0.05,-0.150008 0.725037,1.050055 0.725037,1.050055 0,0 0.375019,0.100005 0.475024,-0.100007 0.100005,-0.200009 -2.167994,-2.527809 -2.167994,-2.527809 0,0 -0.616157,-0.258191 -0.457139,-0.572348 z"
       id="path29179" />
    <path
       style="opacity:0.142132;fill:none;fill-opacity:1;stroke:#200752;stroke-width:0.2;stroke-linecap:round;stroke-linejoin:round;stroke-dasharray:none;stroke-opacity:1"
       d="m 9.1751784,78.333749 c 0,0 -0.1060714,1.007679 -0.4949999,1.166786"
       id="path61917" />
    <path
       style="opacity:1;fill:#c99572;fill-opacity:1;stroke:none;stroke-width:0.373999;stroke-linecap:round;stroke-linejoin:round;stroke-opacity:1"
       d="M 15.946071,62.193214 16.0875,57.950356 c 0,0 -2.899286,-2.616427 -7.3189287,-0.247499 -0.3535713,2.086072 -0.2121429,0.654107 -0.4596429,4.401965 -0.2475,3.747857 7.6371426,0.08839 7.6371426,0.08839 z"
       id="path29054" />
    <path
       style="opacity:1;fill:none;fill-opacity:1;stroke:#cd8552;stroke-width:0.105657;stroke-linecap:round;stroke-linejoin:round;stroke-dasharray:none;stroke-opacity:1"
       d="m 13.266708,60.325144 c 0.29432,0.321061 1.070409,-0.443613 1.150653,0.868837"
       id="path33844" />
    <path
       style="opacity:1;fill:#9e863d;fill-opacity:1;stroke:none;stroke-width:0.373999;stroke-linecap:round;stroke-linejoin:round;stroke-opacity:1"
       d="m 8.3442857,61.804285 c 0,0 5.1621423,-2.262857 7.1421423,-0.707142 1.98,1.555713 -1.343571,2.757856 -0.212142,3.677142 1.131428,0.919285 -6.2935719,-0.141427 -6.7885718,-0.707143 -0.495,-0.565714 -0.1414285,-2.262857 -0.1414285,-2.262857 z"
       id="path27288" />
    <path
       style="opacity:1;fill:none;fill-opacity:1;stroke:#000000;stroke-width:0.1;stroke-linecap:round;stroke-linejoin:round;stroke-dasharray:none;stroke-opacity:1"
       d="m 9.8999999,57.968035 c 0,0 0.5480361,-0.300535 0.7866961,-0.02652 0.238661,0.274019 0.795536,0.450805 1.060715,0.309377"
       id="path31387" />
    <path
       style="opacity:1;fill:#ffffff;fill-opacity:1;stroke:none;stroke-width:0.1;stroke-linecap:round;stroke-linejoin:round;stroke-dasharray:none;stroke-opacity:1"
       d="m 9.9755087,58.296724 1.7563393,0.225001 -0.268761,0.818792 c 0,0 -0.443773,-0.250013 -1.081305,-0.212512 -0.4542451,0.02672 -0.4062713,-0.831293 -0.4062713,-0.831293 z"
       id="path43176" />
    <ellipse
       style="opacity:1;fill:#446da0;fill-opacity:1;stroke:#000000;stroke-width:0.1;stroke-linecap:round;stroke-linejoin:round;stroke-dasharray:none;stroke-opacity:1"
       id="path39316"
       cx="11.334173"
       cy="59.156918"
       rx="0.41765624"
       ry="0.30053571"
       mask="url(#mask43179)" />
    <path
       style="opacity:1;fill:#ffffff;fill-opacity:1;stroke:none;stroke-width:0.1;stroke-linecap:round;stroke-linejoin:round;stroke-dasharray:none;stroke-opacity:1"
       d="m 15.761105,58.455831 -1.756339,0.225001 0.268761,0.818792 c 0,0 0.443773,-0.250013 1.081305,-0.212512 0.454245,0.02672 0.406271,-0.831293 0.406271,-0.831293 z"
       id="path43183" />
    <ellipse
       style="opacity:1;fill:#446da0;fill-opacity:1;stroke:#000000;stroke-width:0.1;stroke-linecap:round;stroke-linejoin:round;stroke-dasharray:none;stroke-opacity:1"
       id="ellipse43185"
       cx="11.334173"
       cy="59.156918"
       rx="0.41765624"
       ry="0.30053571"
       mask="url(#mask43179)"
       transform="matrix(-1,0,0,1,25.736614,0.15910715)" />
    <path
       style="opacity:1;fill:none;fill-opacity:1;stroke:#000000;stroke-width:0.1;stroke-linecap:round;stroke-linejoin:round;stroke-dasharray:none;stroke-opacity:1"
       d="m 13.709732,58.427677 c 0,0 0.327054,0.194467 0.512678,0 0.185626,-0.194463 1.255179,-0.07071 1.24634,-0.406606"
       id="path43252" />
    <path
       style="opacity:1;fill:#858585;fill-opacity:1;stroke:#676767;stroke-width:0.2;stroke-linecap:butt;stroke-linejoin:round;stroke-dasharray:none;stroke-opacity:1"
       d="m 2.6164285,68.451428 c 0.4405878,-0.05641 1.6883035,2.227499 1.8650892,2.687143 0.3069894,0.798173 -0.024,2.60146 -0.2033034,3.164465 C 4.0989112,74.866041 3.680147,75.521912 2.4573214,76.106251 1.485135,76.570819 2.1758407,68.50784 2.6164285,68.451428 Z"
       id="path49634" />
    <path
       style="opacity:1;fill:none;fill-opacity:1;stroke:#953bca;stroke-width:0.1;stroke-linecap:round;stroke-linejoin:round;stroke-dasharray:none;stroke-opacity:1"
       d="m 6.5842715,70.770353 c 0.5930807,0.348389 7.3029045,0.287679 7.3436255,-0.271987"
       id="path56759" />
    <path
       style="opacity:1;fill:none;fill-opacity:1;stroke:#953bca;stroke-width:0.1;stroke-linecap:round;stroke-linejoin:round;stroke-dasharray:none;stroke-opacity:1"
       d="m 10.525537,74.753813 c 0,0 3.400173,0.112506 4.462727,-0.362519"
       id="path56827" />
    <path
       style="opacity:1;fill:none;fill-opacity:1;stroke:#816e32;stroke-width:0.1;stroke-linecap:round;stroke-linejoin:round;stroke-dasharray:none;stroke-opacity:1"
       d="m 10.97556,61.865655 c 0,0 3.387673,-0.862545 4.31272,0.287515"
       id="path56830" />
    <path
       style="opacity:0.309645;fill:none;fill-opacity:1;stroke:#200752;stroke-width:0.2;stroke-linecap:round;stroke-linejoin:round;stroke-dasharray:none;stroke-opacity:1"
       d="M 7.0537498,77.661964 C 6.7849416,78.297652 6.133828,78.330826 5.7278571,78.793393"
       id="path61921" />
    <path
       style="opacity:0;fill:none;fill-opacity:1;stroke:#200752;stroke-width:0.226202;stroke-linecap:round;stroke-linejoin:round;stroke-dasharray:none;stroke-opacity:1"
       d="m 11.840065,78.081672 c 0.263496,0.829552 0.477457,0.4132 0.875405,1.016834"
       id="path61923" />
    <path
       style="opacity:0.164975;fill:none;fill-opacity:1;stroke:#200752;stroke-width:0.2;stroke-linecap:round;stroke-linejoin:round;stroke-dasharray:none;stroke-opacity:1"
       d="m 15.185893,77.219998 c 0.02582,0.03873 0.269158,0.99597 0.353572,1.131429"
       id="path61925" />
    <path
       style="opacity:0.261421;fill:none;fill-opacity:1;stroke:#200752;stroke-width:0.2;stroke-linecap:round;stroke-linejoin:round;stroke-dasharray:none;stroke-opacity:1"
       d="m 11.800602,79.679065 c 0.458357,-0.2592 1.541745,-0.482497 2.35012,-0.600032"
       id="path62042" />
    <path
       style="opacity:1;fill:none;fill-opacity:1;stroke:#816e32;stroke-width:0.1;stroke-linecap:round;stroke-linejoin:round;stroke-dasharray:none;stroke-opacity:1"
       d="m 13.613194,62.990713 c 0,0 1.000051,-0.01249 1.212562,0.187511"
       id="path62210" />
    <path
       style="opacity:1;fill:none;fill-opacity:1;stroke:#816e32;stroke-width:0.1;stroke-linecap:round;stroke-linejoin:round;stroke-dasharray:none;stroke-opacity:1"
       d="m 9.5629877,62.928211 c 0,0 0.6000313,-0.137509 0.7375373,-0.112506"
       id="path62488" />
    <path
       style="opacity:1;fill:none;fill-opacity:1;stroke:#816e32;stroke-width:0.1;stroke-linecap:round;stroke-linejoin:round;stroke-dasharray:none;stroke-opacity:1"
       d="m 11.734177,62.843067 c -0.01174,-0.0059 0.989128,0.325806 1.525078,0.237512"
       id="path62490" />
    <path
       style="opacity:0.294416;fill:none;fill-opacity:1;stroke:#3a6595;stroke-width:0.1;stroke-linecap:round;stroke-linejoin:round;stroke-dasharray:none;stroke-opacity:1"
       d="m 17.802321,72.128571 c 0.081,0.368356 0.128119,1.007782 0.114919,1.175625"
       id="path65020" />
  </g>
</svg>
