<?xml version="1.0" encoding="UTF-8" standalone="no"?>
<!-- Created with Inkscape (http://www.inkscape.org/) -->

<svg
   width="58.806232mm"
   height="22.759443mm"
   viewBox="0 0 58.806232 22.759443"
   version="1.1"
   id="svg5"
   xmlns="http://www.w3.org/2000/svg"
   xmlns:svg="http://www.w3.org/2000/svg">
  <defs
     id="defs2" />
  <g
     id="layer1"
     transform="translate(-1.1206225,-0.12069959)">
    <path
       style="fill:none;stroke:#000000;stroke-width:2.559;stroke-linecap:round;stroke-linejoin:round;paint-order:markers fill stroke"
       d="M 2.4001225,4.000204 C 4.8400942,9.7375689 5.8592188,15.474933 7.0120891,21.212298 10.252226,15.028805 13.566838,8.6831869 17.075742,3.7815394 19.236294,9.8966289 20.206119,15.2179 21.650752,20.85571 l 0.147861,-0.256102 -4.289866,-7.430266 c -0.125451,0.460983 -2.59966,0.334778 -5.908155,0 6.790077,-0.104096 13.753858,-0.150291 19.00097,-0.768709"
       id="path369" />
    <path
       style="fill:none;stroke:#000000;stroke-width:2.559;stroke-linecap:round;stroke-linejoin:round;paint-order:markers fill stroke"
       d="m 32.401654,2.8001427 c -1.250846,-0.7217382 -5.004771,-0.1081073 -7.8004,0.2000102 0.296006,5.023623 0.729965,9.5299231 0,18.4009391 4.000205,-0.377151 8.000409,-0.422358 12.000614,0 -0.26668,-3.180487 -0.533361,-7.955812 -0.800041,-13.8007041 3.455211,4.9741541 4.363451,9.0993181 6.400327,13.6006941 0.477319,-4.237891 0.488354,-7.272071 0.20001,-18.4009393 L 52.002653,1.4000714 47.602429,3.4001733 V 21.601102 L 53.002702,9.8004999 54.083518,21.601102 c 0,0 3.117318,-9.117623 4.563839,-12.1299091"
       id="path371" />
    <path
       style="fill:#ffffff;stroke:#000000;stroke-width:2.559;stroke-linecap:round;stroke-linejoin:round;paint-order:markers fill stroke"
       d="m 54.674876,3.9695723 0.455848,-1.338808"
       id="path373" />
  </g>
</svg>
