<?xml version="1.0" encoding="UTF-8" standalone="no"?>
<!-- Created with Inkscape (http://www.inkscape.org/) -->

<svg
   width="74.20118mm"
   height="25.404774mm"
   viewBox="0 0 74.20118 25.404774"
   version="1.1"
   id="svg5"
   xmlns="http://www.w3.org/2000/svg"
   xmlns:svg="http://www.w3.org/2000/svg">
  <defs
     id="defs2" />
  <g
     id="layer1"
     transform="translate(-3.0001529,-18.197452)">
    <path
       style="fill:#f56900;fill-opacity:1;stroke-width:0.3;stroke-linecap:round;stroke-linejoin:round;paint-order:markers fill stroke"
       d="m 3.000153,43.602224 c 0,0 3.8001939,-0.800042 3.4001733,-3.800194 -0.4000203,-3.000153 -1.8000916,-4.400225 -1.8000916,-4.400225 0,0 4.6002347,4.400225 4.8002449,0.400021 0.2000101,-4.000204 -1.2000614,-6.200317 -1.2000614,-6.200317 0,0 2.6001328,4.400224 3.6001838,2.600134 1.000051,-1.800092 1.000051,-0.600032 1.000051,-0.600032 0,0 4.000204,13.000664 3.800194,8.60044 -0.200011,-4.400225 -2.800143,-7.800399 -0.800041,-9.000459 2.000102,-1.200062 1.200061,-2.400122 1.200061,-2.400122 0,0 0.400021,8.000407 1.800092,4.200212 1.400071,-3.800191 1.200061,-4.600233 1.200061,-4.600233 0,0 4.600235,2.200111 2.400123,4.800245 -2.200113,2.600132 1.800091,2.800141 2.600132,0.60003 0.800041,-2.200113 2.000102,-4.600233 3.000153,-5.000254 1.000051,-0.400021 1.200063,-0.400021 1.200063,-0.400021 0,0 -2.600135,6.400326 -0.400021,3.600183 2.200111,-2.800141 5.400275,-2.800141 5.000254,-5.000255 -0.400021,-2.200112 1.20006,-3.600183 1.20006,-3.600183 0,0 0,3.200162 1.000051,1.800091 1.000051,-1.400071 3.400174,1.200062 3.400174,1.200062 0,0 -4.400225,10.000509 3.000153,4.000204 7.400379,-6.000306 0,-5.800296 0,-5.800296 0,0 4.400224,-3.400174 6.400328,-0.600031 2.000102,2.800144 -2.600134,8.400428 4.400222,5.600285 7.000359,-2.800141 1.800093,-9.400479 -0.400018,-9.400479 -2.200113,0 -1.000051,0.200011 -1.000051,0.200011 0,0 9.200467,-6.200317 8.200417,2.200112 -1.000051,8.400428 3.000152,4.000203 3.000152,4.000203 0,0 -4.200212,8.00041 0.400021,5.400276 4.600236,-2.600132 2.800144,-1.400072 2.800144,-1.400072 0,0 -3.200165,9.000461 0.400021,4.000206 3.600182,-5.000257 9.600488,-7.000359 4.200212,-11.400583 -5.400275,-4.400224 -3.000152,-2.800142 -3.000152,-2.800142 0,0 7.200368,-2.600133 8.00041,1.800091 0.800039,4.400224 -4.000207,13.600694 -0.800042,11.400583 3.200162,-2.200113 1.600082,10.000508 1.600082,10.000508 z"
       id="path245" />
    <path
       style="fill:#f5a100;fill-opacity:1;stroke-width:0.3;stroke-linecap:round;stroke-linejoin:round;paint-order:markers fill stroke"
       d="m 19.701005,39.702025 -3.600184,-2.300118 c 0,0 2.300117,-2.100106 0.900046,-4.200213 -1.400071,-2.100109 1.400071,4.000204 2.700138,2.600132 1.300066,-1.400072 0,3.900199 0,3.900199 z"
       id="path911" />
    <path
       style="fill:#f5a100;fill-opacity:1;stroke-width:0.3;stroke-linecap:round;stroke-linejoin:round;paint-order:markers fill stroke"
       d="m 63.003212,26.401347 c 0,0 1.200063,-1.100056 0.700037,-2.200113 -0.500025,-1.100056 2.800144,2.200113 -0.700037,2.200113 z"
       id="path1671" />
    <path
       style="fill:#f5a100;fill-opacity:1;stroke-width:0.3;stroke-linecap:round;stroke-linejoin:round;paint-order:markers fill stroke"
       d="m 43.50222,41.402111 c 0,0 -2.900149,-3.100158 0.200009,-7.600387 3.100157,-4.500229 2.500127,-2.600132 2.500127,-2.600132 0,0 -4.000204,10.500535 -0.700035,7.700391 3.300169,-2.800141 0.20001,-3.200161 2.700137,-5.100259 2.500127,-1.900097 3.10016,-2.800143 3.10016,-2.800143 0,0 -3.000156,7.600389 -0.600033,5.000254 2.400123,-2.600132 -1.80009,4.90025 -1.80009,4.90025 0,0 0.700035,-2.700136 -0.500025,-1.20006 -1.200063,1.500076 -2.800144,4.100208 -4.400225,1.700086 -1.600083,-2.40012 -0.500025,0 -0.500025,0 z"
       id="path1673" />
    <path
       style="fill:#f5a100;fill-opacity:1;stroke-width:0.3;stroke-linecap:round;stroke-linejoin:round;paint-order:markers fill stroke"
       d="m 30.501555,36.401856 c 0,0 -2.100106,-3.200162 -0.400021,-4.400224 1.700088,-1.20006 0.800042,3.800194 2.000102,1.700088 1.200063,-2.100109 -0.900044,-4.700241 0.300016,-5.400276 1.200063,-0.700037 0.60003,-1.200062 0.60003,-1.200062 0,0 -0.60003,5.50028 0.400021,3.500178 1.000051,-2.000102 1.300068,3.500181 1.300068,3.500181 0,0 2.800141,-0.600033 2.400122,-2.50013 -0.400021,-1.900095 -0.100007,-3.800192 -0.100007,-3.800192 0,0 -0.500025,3.600183 0.400021,3.000153 0.900046,-0.60003 0.300016,4.800245 -0.700035,4.800245 -1.00005,0 -0.500025,-0.100007 -1.00005,-0.900046 -0.500026,-0.800042 1.100055,0.60003 -0.400021,1.100055 -1.500077,0.500026 -1.800093,1.20006 -1.600081,-1.100055 0.200009,-2.300119 -0.100005,0.100004 -0.500026,0.300013 -0.400021,0.200012 -1.200062,2.300118 -1.800092,1.600084 -0.60003,-0.700037 -0.900047,-0.200012 -0.900047,-0.200012 z"
       id="path1675" />
    <path
       style="fill:#f5a100;fill-opacity:1;stroke-width:0.3;stroke-linecap:round;stroke-linejoin:round;paint-order:markers fill stroke"
       d="m 61.903157,38.501965 c 0,0 -1.000051,-6.500333 1.400072,-7.40038 2.400122,-0.900043 5.200266,0.600033 4.90025,-2.000102 -0.300017,-2.600131 -0.700035,-2.400122 1.300067,1.700089 2.000102,4.100208 0,3.200161 -1.700088,1.80009 -1.700086,-1.40007 -5.300271,1.800092 -3.500179,2.200113 1.800093,0.400021 2.800144,3.300169 4.700241,0.200009 1.900098,-3.100157 -1.800092,9.000461 -7.100363,3.500181 z"
       id="path1677" />
    <path
       style="fill:#f5a100;fill-opacity:1;stroke-width:0.3;stroke-linecap:round;stroke-linejoin:round;paint-order:markers fill stroke"
       d="m 55.602835,35.601817 c 0,0 1.400072,-2.50013 -0.800039,-3.10016 -2.200114,-0.60003 3.800192,-0.900046 2.400123,-3.000153 -1.400072,-2.100106 -1.100059,-2.600132 -1.100059,-2.600132 0,0 2.200114,4.400225 3.10016,2.900149 0.900047,-1.500077 -3.000152,6.900351 -3.600185,6.300321 -0.60003,-0.600032 0,-0.500025 0,-0.500025 z"
       id="path2405" />
    <path
       style="fill:#f5a100;fill-opacity:1;stroke-width:0.3;stroke-linecap:round;stroke-linejoin:round;paint-order:markers fill stroke"
       d="m 74.903821,41.102097 c 0,0 -0.700037,-1.600081 0.60003,-3.900199 1.300067,-2.300118 1.600081,-1.900097 0.400021,-3.800195 -1.200063,-1.900097 -1.800093,-1.100055 -1.800093,-1.100055 0,0 3.000153,3.700187 0.200012,4.000204 -2.800143,0.300016 -3.70019,0.200009 -3.70019,0.200009 0,0 3.400174,2.200113 1.600081,2.800143 -1.80009,0.60003 -3.100157,2.400123 -3.100157,2.400123 0,0 -1.000051,1.600081 -3.300169,0.200009 -2.300118,-1.400069 3.400173,4.400225 8.900453,-0.200009 5.500283,-4.600234 0.200012,-0.60003 0.200012,-0.60003 z"
       id="path2407" />
    <path
       style="fill:#f5a100;fill-opacity:1;stroke-width:0.3;stroke-linecap:round;stroke-linejoin:round;paint-order:markers fill stroke"
       d="m 11.300576,41.102097 c -1.400071,-1.700088 -1.100056,-1.000051 0.800041,-0.900046 1.900097,0.100004 1.400072,-0.900047 -0.60003,-2.400123 -2.0001024,-1.500076 0.80004,0.100004 0.80004,0.100004 0,0 0.700036,2.200114 1.600082,0.800042 0.900046,-1.400072 0.600031,-2.800143 0.900046,1.600081 0.300015,4.400225 0.500025,3.10016 -0.600031,1.900097 -1.100056,-1.20006 -0.900046,-0.400021 -1.700086,0.100005 -0.800041,0.500025 -1.200062,-1.20006 -1.200062,-1.20006 z"
       id="path2409" />
    <path
       style="fill:#f5a100;fill-opacity:1;stroke-width:0.3;stroke-linecap:round;stroke-linejoin:round;paint-order:markers fill stroke"
       d="m 55.102811,42.002142 c -0.800041,-1.000051 -2.600132,0.100005 -2.100107,-1.800092 0.500025,-1.900098 -0.900046,-2.400123 2.000102,-0.500026 2.900148,1.900097 -0.300015,-0.800039 0.100005,-1.700085 0.400021,-0.900047 -0.40002,-1.200063 -0.40002,-1.200063 0,0 2.100107,0.900046 1.900097,2.200114 -0.20001,1.300064 0.40002,2.20011 1.100056,1.00005 0.700035,-1.200062 -0.800041,-1.300067 -0.800041,-1.300067 0,0 3.300168,0 1.400071,1.300067 -1.900096,1.300065 -1.800091,3.30017 -3.200163,2.000102 z"
       id="path2411" />
    <path
       style="fill:#f5a100;fill-opacity:1;stroke-width:0.3;stroke-linecap:round;stroke-linejoin:round;paint-order:markers fill stroke"
       d="m 27.901423,41.802132 c 0,0 -5.000255,-1.400072 -4.800245,-4.000204 0.20001,-2.600131 0.100005,-1.300067 0.100005,-1.300067 0,0 0.700036,2.600132 1.800092,2.400123 1.100056,-0.200009 0.800041,-1.300067 0.700036,-2.300118 -0.100005,-1.000051 1.000051,2.900148 1.700087,2.600134 0.700035,-0.300016 0.80004,-0.600032 0.80004,-0.600032 0,0 1.900099,0.200011 0.700036,1.000053 -1.200061,0.800039 0.100005,2.800141 -1.000051,2.200111 z"
       id="path2521" />
    <path
       style="fill:#f5a100;fill-opacity:1;stroke-width:0.3;stroke-linecap:round;stroke-linejoin:round;paint-order:markers fill stroke"
       d="m 6.3003212,42.202152 -3.000153,-3.200161 c 0,0 2.9001479,0.700034 3.1001584,1.900094 0.2000102,1.200063 2.0001018,0.800042 2.0001018,0.800042 z"
       id="path3249" />
    <path
       style="fill:#f5a100;fill-opacity:1;stroke-width:0.3;stroke-linecap:round;stroke-linejoin:round;paint-order:markers fill stroke"
       d="m 9.6004897,35.101791 c 0,0 -0.7000359,-1.700088 -2.1001071,-1.900097 C 6.100311,33.001682 6.900352,33.101687 6.900352,33.101687 c 0,0 3.200163,2.800144 2.7001377,3.300169 C 9.1004643,36.901882 12.300627,36.101842 11.100566,36.001835 9.900505,35.901831 9.6004897,35.101791 9.6004897,35.101791 Z"
       id="path3251" />
    <path
       style="fill:#f5a100;fill-opacity:1;stroke-width:0.3;stroke-linecap:round;stroke-linejoin:round;paint-order:markers fill stroke"
       d="m 41.002092,31.801622 c 0,0 1.000051,-1.200062 0.500026,-2.200113 -0.500026,-1.000051 1.500076,0.700037 0.800039,1.400072 -0.700035,0.700037 -1.300065,3.400173 -1.300065,2.400122 0,-1.000051 0,-1.600081 0,-1.600081 z"
       id="path3253" />
    <path
       style="fill:#f5a100;fill-opacity:1;stroke-width:0.3;stroke-linecap:round;stroke-linejoin:round;paint-order:markers fill stroke"
       d="m 59.20302,20.801061 c 0,0 0.80004,-0.900046 1.700086,-1.200061 0.900046,-0.300015 -1.000051,1.000051 -1.400072,2.600132 -0.400018,1.600082 -0.300014,-1.400071 -0.300014,-1.400071 z"
       id="path3255" />
    <path
       style="fill:#f5a100;fill-opacity:1;stroke-width:0.3;stroke-linecap:round;stroke-linejoin:round;paint-order:markers fill stroke"
       d="m 74.803817,26.001326 c 0,0 1.700085,-0.800041 0.500025,-2.700138 -1.200063,-1.900097 -1.200063,0.200011 -1.200063,0.200011 0,0 0.100005,-1.000051 0.400021,1.000051 0.300017,2.000102 0.300017,1.500076 0.300017,1.500076 z"
       id="path3257" />
  </g>
</svg>
