<?xml version="1.0" encoding="UTF-8" standalone="no"?>
<!-- Created with Inkscape (http://www.inkscape.org/) -->

<svg
   width="30.589746mm"
   height="9.2756157mm"
   viewBox="0 0 30.589746 9.2756157"
   version="1.1"
   id="svg5"
   xmlns="http://www.w3.org/2000/svg"
   xmlns:svg="http://www.w3.org/2000/svg">
  <defs
     id="defs2" />
  <g
     id="layer1"
     transform="translate(-0.35001782,-1.3315261)">
    <path
       style="fill:#d66b00;fill-opacity:1;stroke-width:0.3;stroke-linecap:round;stroke-linejoin:round;paint-order:markers fill stroke"
       d="m 0.35001785,10.550538 c 0,0 1.55007915,0 0.85004325,-2.0501044 C 0.50002545,6.4503289 0.35001785,5.0002551 0.35001785,5.0002551 c 0,0 0.75003815,1.8000917 1.45007405,1.2500637 C 2.5001276,5.7002908 1.6000815,5.8002959 2.3501199,5.0502577 3.1001581,4.3002192 2.4001225,2.6501352 1.650084,2.7001378 0.90004585,2.7501403 0.95004835,2.900148 0.95004835,2.900148 c 0,0 -0.1000051,-0.7000359 1.35006905,-0.800041 1.4500738,-0.1000051 1.8000916,1.6500842 1.8000916,1.6500842 0,0 -0.1000051,2.8501454 1.0000512,2.2501148 1.1000557,-0.6000305 0.2500127,-1.9000969 0.8000407,-2.55013 0.550028,-0.6500331 1.600082,-0.6500331 1.600082,-0.6500331 0,0 -0.950049,1.100056 -0.350018,2.0001018 0.60003,0.9000461 0,2.6501351 0.750038,1.9500995 0.750038,-0.7000356 0.550028,-1.7000865 0.900046,-2.1001071 0.350018,-0.4000204 0.700036,-0.6000306 0.700036,-0.6000306 0,0 -1.150059,1.6500843 -0.200011,1.4500741 0.9500491,-0.2000102 0.350018,-0.2000102 0.350018,-0.2000102 0,0 0.5000261,3.9502017 1.1000561,2.5001275 0.600031,-1.450074 -0.350017,-2.1501097 0.400021,-2.7501402 0.750038,-0.6000308 0.800041,-0.800041 1.250064,-1.5000766 0.450023,-0.7000357 0.150007,-0.5000255 0.150007,-0.5000255 0,0 1.250064,0.3500178 0.150008,1.3000662 -1.100056,0.9500486 0.150008,4.0002041 0.900046,3.5501812 0.750038,-0.4500232 0.900046,-0.6000308 0.60003,-1.350069 -0.300015,-0.7500381 -0.500025,-0.7500381 -0.500025,-0.7500381 0,0 0.05,-0.4500229 0.250013,-0.2000102 0.20001,0.2500127 1.000051,0 0.700035,-0.4000204 -0.300015,-0.4000206 -0.350018,-0.9000461 -0.550028,-1.4500741 -0.20001,-0.550028 0.650034,-0.3500178 0.500026,-0.7000356 -0.150008,-0.3500178 0,-0.7000359 0,-0.7000359 0,0 0.60003,3.7001889 1.100056,3.1001583 0.500025,-0.6000308 0.450023,-0.8500435 0.450023,-0.8500435 0,0 0.750038,3.0001532 1.250064,1.1500588 0.500025,-1.8500944 -0.05,-2.3001173 0.80004,-2.5501301 0.850044,-0.2500127 0.800041,-0.4000203 0.800041,-0.4000203 0,0 -1.350069,2.9501504 -0.150007,2.5501301 1.200061,-0.4000207 0.650033,-0.1500077 0.650033,-0.1500077 0,0 -0.500026,3.9001988 0.40002,2.450125 0.900046,-1.4500741 0.750038,-1.6500843 1.250064,-2.0001021 0.500025,-0.3500178 0.20001,-0.2500127 0.20001,-0.2500127 0,0 -0.800041,2.9501504 0.05,2.0501043 0.850044,-0.9000458 0.550028,-0.650033 0.550028,-0.650033 0,0 -1.450074,2.6001323 -0.100005,1.6500842 1.350068,-0.9500486 1.500076,-0.7500382 1.350068,-1.5000766 -0.150008,-0.7500382 -0.450022,-1.3500687 0,-1.9500993 0.450025,-0.6000308 1.350068,-0.5500282 0.60003,-1.1500588 -0.750038,-0.6000305 -0.550026,-0.6000305 -0.550026,-0.6000305 0,0 1.80009,0 1.750089,0.7500382 -0.05,0.7500381 -1.350068,1.6500842 -0.650034,1.7000868 0.700035,0.050003 1.650085,-0.7000357 1.400072,-1.3000665 C 25.501298,3.8001938 24.701257,3.4001734 25.401294,2.7001378 26.101328,2.0001019 25.95132,2.100107 25.95132,2.100107 c 0,0 -0.450022,2.1501097 0.05,1.6500842 0.500025,-0.5000254 1.050052,1.0000509 1.250063,-0.3000152 0.20001,-1.3000665 0.20001,-0.2500128 0.20001,-0.2500128 0,0 -0.450022,3.550181 0.40002,2.4001225 0.850043,-1.1500588 1.450076,-0.7500385 1.450076,-0.7500385 0,0 -1.750092,1.9500996 -0.400021,3.0001533 1.350068,1.0500536 1.750089,-0.4500232 1.750089,-0.4500232 0,0 -1.250064,2.1001068 -0.250013,1.5500788 1.000051,-0.5500276 0.300014,1.6500839 0.300014,1.6500839 z"
       id="path245" />
    <path
       style="fill:#d68c00;fill-opacity:1;stroke-width:0.3;stroke-linecap:round;stroke-linejoin:round;paint-order:markers fill stroke"
       d="m 7.3189284,7.9907142 c 0,0 0.495,-0.8132143 0.070714,-1.0607143 -0.4242858,-0.2475 -0.7071429,-0.8132143 -0.035357,-1.3789287 0.6717856,-0.565714 0.777857,-0.1414285 0.6010715,-0.7424999 -0.1767859,-0.6010714 0.035357,0 0.4242855,0.3182144 C 8.7685712,5.445 7.1067858,6.5057141 7.8492857,6.2582141 8.5917856,6.0107141 7.3189284,7.9907142 7.3189284,7.9907142 Z"
       id="path1226" />
    <path
       style="fill:#d68c00;fill-opacity:1;stroke-width:0.3;stroke-linecap:round;stroke-linejoin:round;paint-order:markers fill stroke"
       d="m 12.481071,6.1875 c 0,0 0.813214,0.2475 0.671786,-0.6010714 C 13.011428,4.7378572 12.940714,4.5257143 12.940714,4.5257143 Z"
       id="path1606" />
    <path
       style="fill:#d68c00;fill-opacity:1;stroke-width:0.3;stroke-linecap:round;stroke-linejoin:round;paint-order:markers fill stroke"
       d="m 19.8,9.0867856 c 0,0 -1.025357,-0.2121429 -0.707143,-1.2374999 0.318214,-1.0253572 1.025357,-0.6364287 0.601071,-1.5557143 -0.424285,-0.9192857 -0.176785,-1.6264286 -0.176785,-1.6264286 0,0 0.565714,2.6871429 0.919285,2.2982142 C 20.79,6.5764285 20.012143,8.2028571 19.870714,8.3442857 19.729285,8.4857142 19.587857,8.7685712 19.8,9.0867856 Z"
       id="path1608" />
    <path
       style="fill:#d68c00;fill-opacity:1;stroke-width:0.3;stroke-linecap:round;stroke-linejoin:round;paint-order:markers fill stroke"
       d="m 23.5125,9.5110714 c 0,0 0.707143,-0.3535714 -0.176786,-1.0960716 -0.883929,-0.7424999 0.424286,0 0.707143,0 0.282857,0 0.919286,-1.308214 0.141429,-1.5203569 -0.777858,-0.212143 0.353571,0.070714 0.565714,-0.1414286 0.212143,-0.2121429 0.777857,0 0.7425,-0.7425002 -0.03536,-0.7424999 0.388928,0.1060715 0.212143,0.3182144 -0.176786,0.2121429 -0.318215,1.3789287 0.282857,0.8485714 0.601071,-0.530357 0.530356,-0.9899999 0.88393,-1.0607143 0.35357,-0.070714 -0.742502,0.6364287 -0.707145,1.3789287 0.03536,0.7424999 0.919285,1.6617857 1.37893,0.8839284 0.459642,-0.777857 0.459642,-0.777857 0.459642,-0.777857 0,0 0.212143,0.8485714 -0.176787,1.0960714 -0.388927,0.2475 0.176787,1.3082139 0.707144,0.9192858 0.530357,-0.3889288 -0.7425,0.4596431 -0.141428,0.5303571 0.60107,0.07071 1.414285,0.212143 1.449642,-0.3182145 0.03536,-0.530357 -0.141428,0.4596425 0.424286,0.4242855 0.565713,-0.03536 0.35357,0.353572 0.35357,0.353572 0,0 -3.535714,-0.141429 -3.747854,-0.495 -0.212143,-0.3535716 -0.212143,-0.07071 -0.813216,0.176785 -0.601071,0.2475 -0.388929,-2.0153567 -0.707143,-1.378928 -0.318214,0.6364285 -0.671785,1.7325 -0.777857,1.2375 -0.106071,-0.4950001 -0.212143,-0.9192859 -0.212143,-0.9192859 0,0 -0.07071,0.7425002 -0.530357,0.6364288 -0.459643,-0.1060715 -0.530357,0.3182141 -0.530357,0.3182141 0,0 -0.141429,-0.4596429 0.212143,-0.6717856 z"
       id="path1610" />
    <path
       style="fill:#d68c00;fill-opacity:1;stroke-width:0.3;stroke-linecap:round;stroke-linejoin:round;paint-order:markers fill stroke"
       d="m 2.2982142,9.8999999 c 0,0 0.8485714,-1.2728572 0.1767858,-1.8385713 C 1.8032143,7.4957143 0.98999999,7.2835714 1.0960714,6.8946429 1.2021429,6.5057141 1.7325,7.6724999 2.2275,7.5310713 2.7225,7.3896428 3.1821429,7.0007143 2.8285715,6.5057141 2.475,6.0107141 2.475,6.0107141 2.8992856,5.3742857 3.3235714,4.7378572 2.687143,6.1521429 3.0760715,5.9753571 3.465,5.7985715 4.4549999,6.7532143 4.1367858,7.6371428 3.8185714,8.5210712 4.1721428,9.0160715 4.5610713,8.4149998 4.9499998,7.8139284 4.1014284,7.212857 4.7732142,6.8239285 5.445,6.435 4.5257143,8.6625 5.1975001,8.3089286 5.8692856,7.9553572 4.9146428,9.4757141 4.9146428,9.4757141 c 0,0 1.0253572,0.6364289 1.2728572,0 C 6.435,8.8392856 5.9046427,8.1674998 6.435,8.2028571 6.965357,8.2382142 6.0460715,8.9807141 6.470357,8.9453571 6.8946429,8.91 5.9753571,10.324285 6.5764285,10.076786 7.1774999,9.8292855 6.7885714,9.687857 7.3896428,9.2989285 7.9907142,8.91 7.1067858,9.7232141 7.1421428,10.006071 7.1774999,10.288928 6.470357,10.6425 6.3289285,10.324285 6.1875,10.006071 5.445,9.7939285 5.445,9.9707143 5.445,10.1475 6.2935714,10.076786 5.9753571,10.253571 5.6571427,10.430357 5.0560713,10.677857 4.9853572,10.324285 4.9146428,9.9707143 4.2074999,9.9707143 4.5257143,9.4757141 4.8439286,8.9807141 4.1367858,9.687857 3.8185714,9.9707143 3.500357,10.253571 2.5103571,10.501071 3.0053571,10.112143 3.500357,9.7232141 3.8892858,9.2282141 3.4296429,9.405 2.97,9.5817855 2.2628571,10.218214 2.2982142,9.8999999 Z"
       id="path1612" />
    <path
       style="fill:#d68c00;fill-opacity:1;stroke-width:0.3;stroke-linecap:round;stroke-linejoin:round;paint-order:markers fill stroke"
       d="M 10.501071,9.3696426 C 10.607143,9.5110714 12.056786,9.192857 11.455714,8.8039285 10.854643,8.4149998 9.8646429,7.7432142 10.571786,7.2482143 c 0.707142,-0.495 0.141428,-0.3535714 0.141428,-0.3535714 0,0 0.282857,-0.495 0.495,-0.1060715 0.212143,0.3889285 -0.848571,1.025357 -0.2475,1.0960714 0.601072,0.070714 1.98,0.282857 1.202143,0.9546428 -0.777857,0.6717858 -1.166786,0.8132143 -1.661786,0.530357 z"
       id="path1614" />
    <path
       style="fill:#d68c00;fill-opacity:1;stroke-width:0.3;stroke-linecap:round;stroke-linejoin:round;paint-order:markers fill stroke"
       d="m 14.673214,9.7232141 c 0,0 -0.565714,-0.5657141 -0.813214,-0.777857 -0.2475,-0.2121429 0.03536,-0.3889285 0.601071,0.070714 0.565715,0.4596426 0.813215,0.4242855 0.495,-0.3889288 -0.318214,-0.8132143 -0.777857,-1.2374999 -0.282857,-1.4496428 0.495,-0.2121429 -0.2475,0.6364285 0.03536,0.495 0.282858,-0.1414286 0.282858,1.0960713 0.601072,0.6364287 C 15.62786,7.8492853 16.016789,7.9199994 15.380356,7.283571 14.743928,6.6471429 14.779286,6.2582141 14.85,6.1167856 c 0.07071,-0.1414285 0.353571,0.6717858 0.565714,0.4596429 0.212143,-0.2121429 0.813214,1.4142857 0.7425,1.6264286 C 16.0875,8.4149998 17.0775,8.0260713 16.794643,7.5310713 16.511785,7.0360714 16.158214,6.8592855 16.370357,6.5764285 c 0.212143,-0.2828571 0.318214,0.7071429 0.671786,0.7071429 0.353571,0 -0.07071,0.8485713 0.388928,-0.070714 0.459643,-0.9192856 0.459643,-1.8385713 0.954643,-1.6617858 0.495,0.1767859 -0.530357,0.9192858 -0.2475,0.7778573 C 18.421071,6.1875 17.325,8.5917856 17.996786,8.0614286 18.668571,7.5310713 17.607857,8.7332142 17.82,9.1221427 c 0.212143,0.3889287 0.07071,0.8485716 0.495,0.2474999 0.424286,-0.6010714 0.99,-0.3889285 0.919285,0 -0.07071,0.3889288 -0.848571,0.1060715 -0.883928,0.7425004 C 18.315,10.748571 19.305,10.006071 19.305,10.006071 c 0,0 0.03536,0.601072 -0.707143,0.495 C 17.855357,10.395 15.84,10.112143 16.405714,9.5464285 16.971428,8.9807141 15.5925,10.465714 15.0975,10.288928 14.6025,10.112143 14.673214,9.7232141 14.673214,9.7232141 Z"
       id="path1616" />
    <path
       style="fill:#523500;fill-opacity:1;stroke-width:0.3;stroke-linecap:round;stroke-linejoin:round;paint-order:markers fill stroke"
       d="m 22.302739,6.5863119 c 0,0 -0.798656,-0.3057319 -0.518266,-1.0013888 0.280391,-0.6956568 1.480421,-0.8373468 1.194586,-1.5994918 -0.285837,-0.7621452 0.09755,-1.4324606 0.526446,-1.3997613 0.428894,0.0327 0.257227,-0.00954 0.257227,-0.00954 0,0 -0.997032,1.6845082 -0.09701,1.5782408 0.900023,-0.106267 -0.622089,1.048526 -0.852886,1.246623 -0.230796,0.198097 -0.838714,0.4490554 -0.510098,1.1853141 z"
       id="path3067" />
    <path
       style="fill:#523500;fill-opacity:1;stroke-width:0.3;stroke-linecap:round;stroke-linejoin:round;paint-order:markers fill stroke"
       d="m 10.1475,6.3996429 c 0,0 -1.6617858,-0.7778573 -1.0253573,-1.6264287 C 9.7585714,3.9246429 10.783928,2.8285715 10.112143,2.5457143 9.440357,2.2628571 9.2989285,1.6617857 9.4757141,1.4142857 9.6524999,1.1667857 10.041428,2.475 10.713214,2.2982142 11.385,2.1214286 11.031428,4.5964284 10.359643,5.0207142 9.687857,5.445 10.1475,6.3996429 10.1475,6.3996429 Z"
       id="path3888" />
    <path
       style="fill:#523500;fill-opacity:1;stroke-width:0.3;stroke-linecap:round;stroke-linejoin:round;paint-order:markers fill stroke"
       d="m 5.0688741,6.3710589 c 0,0 -1.3738188,-0.7986732 -1.124902,-1.7277236 0.248917,-0.9290506 0.6587524,-1.7154126 0.094775,-1.8503699 -0.5639777,-0.1349572 0.061078,-1.4614392 0.061078,-1.4614392 0,0 0.083137,0.5716164 0.5056671,1.0938851 0.4225301,0.5222684 0.644343,2.7077412 0.17056,2.909128 -0.473783,0.2013868 0.2928221,1.0365199 0.2928219,1.0365196 z"
       id="path3890" />
    <path
       style="fill:#523500;fill-opacity:1;stroke-width:0.3;stroke-linecap:round;stroke-linejoin:round;paint-order:markers fill stroke"
       d="m 28.144284,7.0714284 c 0,0 1.591072,-0.530357 1.272858,-1.2021428 -0.318214,-0.6717855 -1.237499,-2.3689286 -0.777857,-2.5457142 0.459643,-0.1767858 0.707144,-0.8839286 0.707144,-0.8839286 0,0 -0.106071,2.7932143 0.282856,2.6517858 0.388929,-0.1414288 0.424286,1.8032143 -1.485001,1.9799998 z"
       id="path3892" />
  </g>
</svg>
