<?xml version="1.0" encoding="UTF-8" standalone="no"?>
<!-- Created with Inkscape (http://www.inkscape.org/) -->

<svg
   width="41.851444mm"
   height="29.134285mm"
   viewBox="0 0 41.851444 29.134285"
   version="1.1"
   id="svg5"
   xmlns="http://www.w3.org/2000/svg"
   xmlns:svg="http://www.w3.org/2000/svg">
  <defs
     id="defs2" />
  <g
     id="layer1"
     transform="translate(3.3741413,-0.424286)">
    <path
       style="fill:#e47800;fill-opacity:1;stroke:none;stroke-width:0.3;stroke-linecap:round;stroke-linejoin:round;stroke-dasharray:none;paint-order:markers fill stroke"
       d="m -3.1114286,29.55857 c 0,0 -1.6971427,-15.415713 3.53571434,-21.779999 C 5.6571427,1.414285 8.7685712,0.42428599 8.7685712,0.42428599 c 0,0 -7.212857,9.47571401 -4.3842855,14.84999901 2.8285712,5.374285 6.7885713,1.272858 6.7885713,1.272858 0,0 -0.282857,12.162856 3.111428,6.222857 C 17.678571,16.830001 23.76,17.112856 23.76,17.112856 c 0,0 -7.212858,3.535714 -3.818572,8.061428 3.394286,4.525717 4.101429,-2.262857 4.101429,-2.262857 0,0 7.212857,1.555716 7.354285,-2.82857 0.14143,-4.384286 2.262856,7.495714 2.262856,7.495714 0,0 0.848572,-1.697143 2.262857,-2.404287 1.414288,-0.707141 1.13143,-0.141428 1.13143,-0.141428 0,0 -2.899286,1.343573 -0.777856,2.262857 2.121429,0.919287 0.636428,0.919287 0.636428,0.919287 0,0 1.979999,0.424286 1.485001,0.919284 -0.495001,0.495001 -1.060715,0.388931 -1.060715,0.388931 z"
       id="path245" />
    <path
       style="fill:#ff8b09;fill-opacity:1;stroke:none;stroke-width:0.3;stroke-linecap:round;stroke-linejoin:round;stroke-dasharray:none;paint-order:markers fill stroke"
       d="m 5.445,20.082857 c 0,0 -1.8385716,-2.687143 0,-5.374286 1.8385713,-2.687143 1.7678569,-1.909285 1.7678569,-1.909285 0,0 -1.7678569,5.727855 -0.5657141,3.535714 1.2021429,-2.192143 0.9192856,-1.343573 0.9192856,-1.343573 0,0 -0.495,4.384286 0.6364287,3.606429 C 9.3342851,17.82 9.192857,21.709285 5.445,20.082857 Z"
       id="path4110" />
    <path
       style="fill:#ff9e09;fill-opacity:1;stroke:none;stroke-width:0.3;stroke-linecap:round;stroke-linejoin:round;stroke-dasharray:none;paint-order:markers fill stroke"
       d="m 11.031429,26.235 c 0,0 0.07071,-1.980001 0.707142,-3.323571 0.636429,-1.343573 2.404286,-3.818572 2.404286,-3.818572 0,0 -1.482012,5.17189 -0.919286,6.505715 C 13.422673,26.070502 11.88,23.477143 11.031429,26.235 Z"
       id="path5120" />
    <path
       style="fill:#ff9e09;fill-opacity:1;stroke:none;stroke-width:0.3;stroke-linecap:round;stroke-linejoin:round;stroke-dasharray:none;paint-order:markers fill stroke"
       d="m 25.644201,27.872029 c 0,0 1.750089,-0.05 1.850096,-1.750092 0.100004,-1.700085 -0.850046,-3.35017 -0.850046,-3.35017 0,0 1.200063,2.100106 1.950101,0.95005 0.750038,-1.150059 0,-0.95005 0.450022,-2.050105 0.450025,-1.100056 1.400072,-1.55008 1.400072,-1.55008 0,0 -1.300067,1.800092 -0.60003,2.400122 0.700034,0.60003 1.300064,3.35017 0.700034,3.70019 -0.60003,0.350017 -0.900046,2.050103 -0.150008,2.050103 0.750038,0 -4.750241,-0.400018 -4.750241,-0.400018 z"
       id="path5704" />
    <path
       style="fill:#ff8b09;fill-opacity:1;stroke:none;stroke-width:0.3;stroke-linecap:round;stroke-linejoin:round;stroke-dasharray:none;paint-order:markers fill stroke"
       d="m 21.406731,26.675187 c 0,0 1.903688,1.11685 2.457885,-2.091569 0.554198,-3.208418 0.0628,-2.601297 0.0628,-2.601297 0,0 -2.724045,5.339777 -2.058412,2.929889 0.665635,-2.40989 0.277101,-1.60421 0.277101,-1.60421 0,0 -1.321686,2.931859 -2.132266,1.955294 0.05361,0.238409 0.08882,0.590052 0.355334,0.874366 0.266518,0.284314 0.530582,0.323825 1.037558,0.537527 z"
       id="path5706" />
  </g>
</svg>
