<?xml version="1.0" encoding="UTF-8" standalone="no"?>
<!-- Created with Inkscape (http://www.inkscape.org/) -->

<svg
   width="11.201mm"
   height="20.700001mm"
   viewBox="0 0 11.201 20.700001"
   version="1.1"
   id="svg8988"
   xmlns:xlink="http://www.w3.org/1999/xlink"
   xmlns="http://www.w3.org/2000/svg"
   xmlns:svg="http://www.w3.org/2000/svg">
  <defs
     id="defs8985">
    <linearGradient
       id="linearGradient12198">
      <stop
         style="stop-color:#5fee0c;stop-opacity:1;"
         offset="0"
         id="stop12194" />
      <stop
         style="stop-color:#08ad51;stop-opacity:1;"
         offset="1"
         id="stop12196" />
    </linearGradient>
    <linearGradient
       id="linearGradient11497">
      <stop
         style="stop-color:#1b1b1b;stop-opacity:1;"
         offset="0"
         id="stop11493" />
      <stop
         style="stop-color:#333333;stop-opacity:1;"
         offset="1"
         id="stop11495" />
    </linearGradient>
    <linearGradient
       xlink:href="#linearGradient7406"
       id="linearGradient7400"
       gradientUnits="userSpaceOnUse"
       x1="13.356893"
       y1="12.786245"
       x2="17.107283"
       y2="29.474819" />
    <linearGradient
       id="linearGradient7406">
      <stop
         style="stop-color:#1dec7f;stop-opacity:1;"
         offset="0"
         id="stop7402" />
      <stop
         style="stop-color:#2c50a4;stop-opacity:1;"
         offset="1"
         id="stop7404" />
    </linearGradient>
    <linearGradient
       xlink:href="#linearGradient7406"
       id="linearGradient7360"
       gradientUnits="userSpaceOnUse"
       gradientTransform="matrix(1.0904715,0,0,1.0904715,59.368671,-0.76378647)"
       x1="13.356893"
       y1="12.786245"
       x2="17.107283"
       y2="29.474819" />
    <linearGradient
       xlink:href="#linearGradient11497"
       id="linearGradient11499"
       x1="90.99472"
       y1="34.44566"
       x2="-2.2100348"
       y2="6.1562428"
       gradientUnits="userSpaceOnUse" />
    <linearGradient
       id="linearGradient5533">
      <stop
         style="stop-color:#68f417;stop-opacity:1;"
         offset="0"
         id="stop5529" />
      <stop
         style="stop-color:#0d8a45;stop-opacity:1;"
         offset="1"
         id="stop5531" />
    </linearGradient>
    <filter
       style="color-interpolation-filters:sRGB"
       id="filter14180"
       x="-0.066347495"
       y="-0.1050136"
       width="1.132695"
       height="1.2100272">
      <feGaussianBlur
         stdDeviation="7.4754674"
         id="feGaussianBlur14182" />
    </filter>
    <linearGradient
       xlink:href="#linearGradient5533"
       id="linearGradient15472"
       gradientUnits="userSpaceOnUse"
       x1="13.356893"
       y1="12.786245"
       x2="17.107283"
       y2="29.474819" />
    <linearGradient
       xlink:href="#linearGradient12198"
       id="linearGradient15474"
       gradientUnits="userSpaceOnUse"
       gradientTransform="matrix(1.0904715,0,0,1.0904715,59.368671,-0.76378647)"
       x1="13.356893"
       y1="12.786245"
       x2="17.107283"
       y2="29.474819" />
    <linearGradient
       xlink:href="#linearGradient5533"
       id="linearGradient15482"
       gradientUnits="userSpaceOnUse"
       x1="13.356893"
       y1="12.786245"
       x2="17.107283"
       y2="29.474819" />
    <linearGradient
       xlink:href="#linearGradient12198"
       id="linearGradient15484"
       gradientUnits="userSpaceOnUse"
       gradientTransform="matrix(1.0904715,0,0,1.0904715,59.368671,-0.76378647)"
       x1="13.356893"
       y1="12.786245"
       x2="17.107283"
       y2="29.474819" />
  </defs>
  <g
     id="layer1"
     transform="translate(-12.714455,-10.236213)">
    <rect
       style="display:none;mix-blend-mode:normal;fill:url(#linearGradient11499);fill-opacity:1;fill-rule:evenodd;stroke:#000000;stroke-width:0;filter:url(#filter14180)"
       id="rect11491"
       width="270.41144"
       height="170.8457"
       x="-37.337143"
       y="-30.548571" />
    <path
       style="fill:url(#linearGradient15472);fill-opacity:1;fill-rule:evenodd;stroke:none;stroke-width:1;stroke-dasharray:none"
       d="m 12.746125,17.728913 -0.450023,11.972603 h 2.304643 l -0.02487,-10.305191 z m 3.646372,-0.0096 0.512859,11.970076 -2.304611,0.0121 -0.02922,-10.30518 z"
       id="path7332"
       class="UnoptimicedTransforms"
       transform="matrix(1.1497395,0,0,1.0892743,1.5916832,-1.924953)" />
    <path
       style="display:inline;fill:url(#linearGradient15474);fill-opacity:1;fill-rule:evenodd;stroke:none;stroke-width:1.09047;stroke-linecap:square;stroke-linejoin:miter;stroke-dasharray:none"
       d="m 70.009992,14.073109 5.248978,4.569879 -0.0012,-4.303145 c -0.01388,-0.02634 -3.199431,-3.41565 -3.199431,-3.41565 z m 10.49563,0 -5.248978,4.569879 0.0012,-4.303145 c 0.01388,-0.02634 3.199431,-3.41565 3.199431,-3.41565 z"
       id="path7334"
       class="UnoptimicedTransforms"
       transform="translate(-56.96078,-0.33408507)" />
    <path
       style="display:none;fill:url(#linearGradient7400);fill-opacity:1;fill-rule:evenodd;stroke:none;stroke-width:1;stroke-dasharray:none"
       d="m 12.746125,17.728913 -0.450023,11.972603 h 2.304643 l -0.02487,-10.305191 z m 3.646372,-0.0096 0.512859,11.970076 -2.304611,0.0121 -0.02922,-10.30518 z"
       id="path7348"
       class="UnoptimicedTransforms"
       transform="matrix(1.1497395,0,0,1.0892743,1.397513,-1.9269368)" />
    <path
       style="display:none;fill:url(#linearGradient7360);fill-opacity:1;fill-rule:evenodd;stroke:none;stroke-width:1.09047;stroke-linecap:square;stroke-linejoin:miter;stroke-dasharray:none"
       d="m 70.009992,14.073109 5.248978,4.569879 -0.0012,-4.303145 c -0.01388,-0.02634 -3.199431,-3.41565 -3.199431,-3.41565 z m 10.49563,0 -5.248978,4.569879 0.0012,-4.303145 c 0.01388,-0.02634 3.199431,-3.41565 3.199431,-3.41565 z"
       id="path7350"
       class="UnoptimicedTransforms"
       transform="translate(-57.15495,-0.33606876)" />
  </g>
  <g
     id="g12204"
     style="display:inline"
     transform="translate(-12.714455,-10.236213)">
    <path
       style="display:inline;fill:url(#linearGradient15482);fill-opacity:1;fill-rule:evenodd;stroke:none;stroke-width:1;stroke-dasharray:none"
       d="m 12.746125,17.728913 -0.450023,11.972603 h 2.304643 l -0.02487,-10.305191 z m 3.646372,-0.0096 0.512859,11.970076 -2.304611,0.0121 -0.02922,-10.30518 z"
       id="path12200"
       transform="matrix(1.1497395,0,0,1.0892743,1.5916832,-1.924953)"
       class="UnoptimicedTransforms" />
    <path
       style="fill:url(#linearGradient15484);fill-opacity:1;fill-rule:evenodd;stroke:none;stroke-width:1.09047;stroke-linecap:square;stroke-linejoin:miter;stroke-dasharray:none"
       d="m 70.009992,14.073109 5.248978,4.569879 -0.0012,-4.303145 c -0.01388,-0.02634 -3.199431,-3.41565 -3.199431,-3.41565 z m 10.49563,0 -5.248978,4.569879 0.0012,-4.303145 c 0.01388,-0.02634 3.199431,-3.41565 3.199431,-3.41565 z"
       id="path12202"
       transform="translate(-56.960781,-0.33408506)"
       class="UnoptimicedTransforms" />
  </g>
</svg>
