<?xml version="1.0" encoding="UTF-8" standalone="no"?>
<!-- Created with Inkscape (http://www.inkscape.org/) -->

<svg
   width="44.900002mm"
   height="44mm"
   viewBox="0 0 44.900002 44"
   version="1.1"
   id="svg8988"
   sodipodi:docname="YVlogos10llgglfire.svg"
   inkscape:export-filename="YVlogos10llgglfire1.png"
   inkscape:export-xdpi="339.42093"
   inkscape:export-ydpi="339.42093"
   inkscape:version="1.2.2 (732a01da63, 2022-12-09)"
   xmlns:inkscape="http://www.inkscape.org/namespaces/inkscape"
   xmlns:sodipodi="http://sodipodi.sourceforge.net/DTD/sodipodi-0.dtd"
   xmlns:xlink="http://www.w3.org/1999/xlink"
   xmlns="http://www.w3.org/2000/svg"
   xmlns:svg="http://www.w3.org/2000/svg">
  <sodipodi:namedview
     id="namedview59"
     pagecolor="#505050"
     bordercolor="#eeeeee"
     borderopacity="1"
     inkscape:showpageshadow="0"
     inkscape:pageopacity="0"
     inkscape:pagecheckerboard="0"
     inkscape:deskcolor="#505050"
     inkscape:document-units="mm"
     showgrid="false"
     inkscape:zoom="3.1569602"
     inkscape:cx="84.891789"
     inkscape:cy="83.307987"
     inkscape:window-width="1366"
     inkscape:window-height="705"
     inkscape:window-x="-8"
     inkscape:window-y="-8"
     inkscape:window-maximized="1"
     inkscape:current-layer="svg8988" />
  <defs
     id="defs8985">
    <linearGradient
       id="linearGradient930">
      <stop
         style="stop-color:#eea30c;stop-opacity:1;"
         offset="0"
         id="stop926" />
      <stop
         style="stop-color:#c54b09;stop-opacity:1;"
         offset="1"
         id="stop928" />
    </linearGradient>
    <linearGradient
       id="linearGradient870">
      <stop
         style="stop-color:#eea30c;stop-opacity:1;"
         offset="0"
         id="stop866" />
      <stop
         style="stop-color:#c54b09;stop-opacity:1;"
         offset="1"
         id="stop868" />
    </linearGradient>
    <linearGradient
       id="linearGradient16176">
      <stop
         style="stop-color:#ffffff;stop-opacity:1;"
         offset="0"
         id="stop16172" />
      <stop
         style="stop-color:#866170;stop-opacity:1;"
         offset="1"
         id="stop16174" />
    </linearGradient>
    <linearGradient
       id="linearGradient12198">
      <stop
         style="stop-color:#5fee0c;stop-opacity:1;"
         offset="0"
         id="stop12194" />
      <stop
         style="stop-color:#08ad51;stop-opacity:1;"
         offset="1"
         id="stop12196" />
    </linearGradient>
    <linearGradient
       id="linearGradient11497">
      <stop
         style="stop-color:#1b1b1b;stop-opacity:1;"
         offset="0"
         id="stop11493" />
      <stop
         style="stop-color:#333333;stop-opacity:1;"
         offset="1"
         id="stop11495" />
    </linearGradient>
    <linearGradient
       xlink:href="#linearGradient7406"
       id="linearGradient7400"
       gradientUnits="userSpaceOnUse"
       x1="13.356893"
       y1="12.786245"
       x2="17.107283"
       y2="29.474819" />
    <linearGradient
       id="linearGradient7406">
      <stop
         style="stop-color:#1dec7f;stop-opacity:1;"
         offset="0"
         id="stop7402" />
      <stop
         style="stop-color:#2c50a4;stop-opacity:1;"
         offset="1"
         id="stop7404" />
    </linearGradient>
    <linearGradient
       xlink:href="#linearGradient7406"
       id="linearGradient7360"
       gradientUnits="userSpaceOnUse"
       gradientTransform="matrix(1.0904715,0,0,1.0904715,59.368671,-0.76378647)"
       x1="13.356893"
       y1="12.786245"
       x2="17.107283"
       y2="29.474819" />
    <linearGradient
       xlink:href="#linearGradient11497"
       id="linearGradient11499"
       x1="90.99472"
       y1="34.44566"
       x2="-2.2100348"
       y2="6.1562428"
       gradientUnits="userSpaceOnUse"
       gradientTransform="translate(0,13.000663)" />
    <linearGradient
       xlink:href="#linearGradient5533"
       id="linearGradient7346"
       gradientUnits="userSpaceOnUse"
       x1="13.356893"
       y1="12.786245"
       x2="17.107283"
       y2="29.474819" />
    <linearGradient
       id="linearGradient5533">
      <stop
         style="stop-color:#68f417;stop-opacity:1;"
         offset="0"
         id="stop5529" />
      <stop
         style="stop-color:#0d8a45;stop-opacity:1;"
         offset="1"
         id="stop5531" />
    </linearGradient>
    <linearGradient
       xlink:href="#linearGradient12198"
       id="linearGradient7344"
       gradientUnits="userSpaceOnUse"
       gradientTransform="matrix(1.0904715,0,0,1.0904715,59.368671,-0.76378647)"
       x1="13.356893"
       y1="12.786245"
       x2="17.107283"
       y2="29.474819" />
    <filter
       style="color-interpolation-filters:sRGB"
       id="filter14180"
       x="-0.066347496"
       y="-0.1050136"
       width="1.132695"
       height="1.2100272">
      <feGaussianBlur
         stdDeviation="7.4754674"
         id="feGaussianBlur14182" />
    </filter>
    <linearGradient
       xlink:href="#linearGradient16176"
       id="linearGradient16178"
       x1="18.800959"
       y1="12.600642"
       x2="18.800959"
       y2="47.002399"
       gradientUnits="userSpaceOnUse" />
    <linearGradient
       xlink:href="#linearGradient930"
       id="linearGradient18878"
       gradientUnits="userSpaceOnUse"
       x1="13.356893"
       y1="12.786245"
       x2="17.107283"
       y2="29.474819" />
    <linearGradient
       xlink:href="#linearGradient870"
       id="linearGradient18880"
       gradientUnits="userSpaceOnUse"
       gradientTransform="matrix(1.0904715,0,0,1.0904715,59.368671,-0.76378647)"
       x1="13.356893"
       y1="12.786245"
       x2="17.107283"
       y2="29.474819" />
    <linearGradient
       xlink:href="#linearGradient5533"
       id="linearGradient19048"
       gradientUnits="userSpaceOnUse"
       x1="13.356893"
       y1="12.786245"
       x2="17.107283"
       y2="29.474819" />
    <linearGradient
       xlink:href="#linearGradient12198"
       id="linearGradient19050"
       gradientUnits="userSpaceOnUse"
       gradientTransform="matrix(1.0904715,0,0,1.0904715,59.368671,-0.76378647)"
       x1="13.356893"
       y1="12.786245"
       x2="17.107283"
       y2="29.474819" />
    <linearGradient
       xlink:href="#linearGradient5533"
       id="linearGradient19054"
       gradientUnits="userSpaceOnUse"
       x1="13.356893"
       y1="12.786245"
       x2="17.107283"
       y2="29.474819" />
    <linearGradient
       xlink:href="#linearGradient12198"
       id="linearGradient19056"
       gradientUnits="userSpaceOnUse"
       gradientTransform="matrix(1.0904715,0,0,1.0904715,59.368671,-0.76378647)"
       x1="13.356893"
       y1="12.786245"
       x2="17.107283"
       y2="29.474819" />
    <linearGradient
       xlink:href="#linearGradient5533"
       id="linearGradient19058"
       gradientUnits="userSpaceOnUse"
       x1="13.356893"
       y1="12.786245"
       x2="17.107283"
       y2="29.474819" />
    <linearGradient
       xlink:href="#linearGradient12198"
       id="linearGradient19060"
       gradientUnits="userSpaceOnUse"
       gradientTransform="matrix(1.0904715,0,0,1.0904715,59.368671,-0.76378647)"
       x1="13.356893"
       y1="12.786245"
       x2="17.107283"
       y2="29.474819" />
    <linearGradient
       xlink:href="#linearGradient5533"
       id="linearGradient19062"
       gradientUnits="userSpaceOnUse"
       x1="13.356893"
       y1="12.786245"
       x2="17.107283"
       y2="29.474819" />
    <linearGradient
       xlink:href="#linearGradient12198"
       id="linearGradient19064"
       gradientUnits="userSpaceOnUse"
       gradientTransform="matrix(1.0904715,0,0,1.0904715,59.368671,-0.76378647)"
       x1="13.356893"
       y1="12.786245"
       x2="17.107283"
       y2="29.474819" />
    <filter
       inkscape:collect="always"
       style="color-interpolation-filters:sRGB"
       id="filter1207"
       x="-0.036702921"
       y="-0.021080668"
       width="1.0734058"
       height="1.0386525">
      <feGaussianBlur
         inkscape:collect="always"
         stdDeviation="0.1375593"
         id="feGaussianBlur1209" />
    </filter>
  </defs>
  <g
     id="layer1"
     style="display:inline">
    <rect
       style="display:inline;mix-blend-mode:normal;fill:url(#linearGradient11499);fill-opacity:1;fill-rule:evenodd;stroke:#000000;stroke-width:0;filter:url(#filter14180)"
       id="rect11491"
       width="270.41144"
       height="170.8457"
       x="-37.337143"
       y="-17.547907" />
    <path
       style="display:none;fill:url(#linearGradient19048);fill-opacity:1;fill-rule:evenodd;stroke:none;stroke-width:1;stroke-dasharray:none"
       d="m 12.746125,17.728913 -0.450023,11.972603 h 2.304643 l -0.02487,-10.305191 z m 3.646372,-0.0096 0.512859,11.970076 -2.304611,0.0121 -0.02922,-10.30518 z"
       id="path7332"
       class="UnoptimicedTransforms"
       transform="matrix(1.1497395,0,0,1.0892743,1.5916832,-1.924953)" />
    <path
       style="display:none;fill:url(#linearGradient19050);fill-opacity:1;fill-rule:evenodd;stroke:none;stroke-width:1.09047;stroke-linecap:square;stroke-linejoin:miter;stroke-dasharray:none"
       d="m 70.009992,14.073109 5.248978,4.569879 -0.0012,-4.303145 c -0.01388,-0.02634 -3.199431,-3.41565 -3.199431,-3.41565 z m 10.49563,0 -5.248978,4.569879 0.0012,-4.303145 c 0.01388,-0.02634 3.199431,-3.41565 3.199431,-3.41565 z"
       id="path7334"
       class="UnoptimicedTransforms"
       transform="translate(-56.96078,-0.33408507)" />
    <path
       style="display:none;fill:url(#linearGradient7400);fill-opacity:1;fill-rule:evenodd;stroke:none;stroke-width:1;stroke-dasharray:none"
       d="m 12.746125,17.728913 -0.450023,11.972603 h 2.304643 l -0.02487,-10.305191 z m 3.646372,-0.0096 0.512859,11.970076 -2.304611,0.0121 -0.02922,-10.30518 z"
       id="path7348"
       class="UnoptimicedTransforms"
       transform="matrix(1.1497395,0,0,1.0892743,1.397513,-1.9269368)" />
    <path
       style="display:none;fill:url(#linearGradient7360);fill-opacity:1;fill-rule:evenodd;stroke:none;stroke-width:1.09047;stroke-linecap:square;stroke-linejoin:miter;stroke-dasharray:none"
       d="m 70.009992,14.073109 5.248978,4.569879 -0.0012,-4.303145 c -0.01388,-0.02634 -3.199431,-3.41565 -3.199431,-3.41565 z m 10.49563,0 -5.248978,4.569879 0.0012,-4.303145 c 0.01388,-0.02634 3.199431,-3.41565 3.199431,-3.41565 z"
       id="path7350"
       class="UnoptimicedTransforms"
       transform="translate(-57.15495,-0.33606876)" />
    <rect
       style="display:none;fill:url(#linearGradient16178);fill-opacity:1;fill-rule:evenodd;stroke:#000000;stroke-width:0;stroke-dasharray:none"
       id="rect16170"
       width="90.804634"
       height="81.20414"
       x="-12.000612"
       y="-6.0003061" />
  </g>
  <g
     id="layer4"
     style="display:none">
    <path
       style="display:inline;fill:url(#linearGradient19054);fill-opacity:1;fill-rule:evenodd;stroke:none;stroke-width:1;stroke-dasharray:none"
       d="m 12.746125,17.728913 -0.450023,11.972603 h 2.304643 l -0.02487,-10.305191 z m 3.646372,-0.0096 0.512859,11.970076 -2.304611,0.0121 -0.02922,-10.30518 z"
       id="path12156"
       transform="matrix(1.1497395,0,0,1.0892743,1.5916832,-1.924953)"
       class="UnoptimicedTransforms" />
    <path
       style="fill:url(#linearGradient19056);fill-opacity:1;fill-rule:evenodd;stroke:none;stroke-width:1.09047;stroke-linecap:square;stroke-linejoin:miter;stroke-dasharray:none"
       d="m 70.009992,14.073109 5.248978,4.569879 -0.0012,-4.303145 c -0.01388,-0.02634 -3.199431,-3.41565 -3.199431,-3.41565 z m 10.49563,0 -5.248978,4.569879 0.0012,-4.303145 c 0.01388,-0.02634 3.199431,-3.41565 3.199431,-3.41565 z"
       id="path12158"
       transform="translate(-56.960781,-0.33408506)"
       class="UnoptimicedTransforms" />
  </g>
  <g
     id="g12204"
     style="display:none">
    <path
       style="display:inline;fill:url(#linearGradient19058);fill-opacity:1;fill-rule:evenodd;stroke:none;stroke-width:1;stroke-dasharray:none"
       d="m 12.746125,17.728913 -0.450023,11.972603 h 2.304643 l -0.02487,-10.305191 z m 3.646372,-0.0096 0.512859,11.970076 -2.304611,0.0121 -0.02922,-10.30518 z"
       id="path12200"
       transform="matrix(1.1497395,0,0,1.0892743,1.5916832,-1.924953)"
       class="UnoptimicedTransforms" />
    <path
       style="display:none;fill:url(#linearGradient19060);fill-opacity:1;fill-rule:evenodd;stroke:none;stroke-width:1.09047;stroke-linecap:square;stroke-linejoin:miter;stroke-dasharray:none"
       d="m 70.009992,14.073109 5.248978,4.569879 -0.0012,-4.303145 c -0.01388,-0.02634 -3.199431,-3.41565 -3.199431,-3.41565 z m 10.49563,0 -5.248978,4.569879 0.0012,-4.303145 c 0.01388,-0.02634 3.199431,-3.41565 3.199431,-3.41565 z"
       id="path12202"
       transform="translate(-56.960781,-0.33408506)"
       class="UnoptimicedTransforms" />
  </g>
  <g
     id="g18868"
     style="display:inline;stroke:none;stroke-opacity:1"
     transform="translate(5.81317,4.7102652)">
    <g
       id="g1202"
       style="display:inline;fill:#000000;fill-opacity:1;stroke:#000000;stroke-width:0.3;stroke-dasharray:none;stroke-opacity:1;filter:url(#filter1207)">
      <path
         style="display:inline;fill:#000000;fill-opacity:1;fill-rule:evenodd;stroke:#000000;stroke-width:0.19596;stroke-dasharray:none;stroke-opacity:1"
         d="m 12.746125,17.728913 -0.450023,11.972603 h 2.304643 l -0.02487,-10.305191 z m 3.646372,-0.0096 0.512859,11.970076 -2.304611,0.0121 -0.02922,-10.30518 z"
         id="path1198"
         transform="matrix(1.5728422,0,0,1.4901259,-6.487051,-13.830852)"
         class="UnoptimicedTransforms"
         inkscape:label="path18864" />
      <path
         style="fill:#000000;fill-opacity:1;fill-rule:evenodd;stroke:#000000;stroke-width:0.219298;stroke-linecap:square;stroke-linejoin:miter;stroke-dasharray:none;stroke-opacity:1"
         d="m 70.009992,14.073109 5.248978,4.569879 -0.0012,-4.303145 c -0.01388,-0.02634 -3.199431,-3.41565 -3.199431,-3.41565 z m 10.49563,0 -5.248978,4.569879 0.0012,-4.303145 c 0.01388,-0.02634 3.199431,-3.41565 3.199431,-3.41565 z"
         id="path1200"
         transform="matrix(1.3679987,0,0,1.3679987,-86.586748,-11.654547)"
         class="UnoptimicedTransforms" />
    </g>
    <path
       style="display:inline;fill:url(#linearGradient18878);fill-opacity:1;fill-rule:evenodd;stroke:none;stroke-width:1;stroke-dasharray:none;stroke-opacity:1"
       d="m 12.746125,17.728913 -0.450023,11.972603 h 2.304643 l -0.02487,-10.305191 z m 3.646372,-0.0096 0.512859,11.970076 -2.304611,0.0121 -0.02922,-10.30518 z"
       id="path18864"
       transform="matrix(1.5728422,0,0,1.4901259,-6.487051,-13.830852)"
       class="UnoptimicedTransforms"
       inkscape:label="path18864" />
    <path
       style="fill:url(#linearGradient18880);fill-opacity:1;fill-rule:evenodd;stroke:none;stroke-width:1.09047;stroke-linecap:square;stroke-linejoin:miter;stroke-dasharray:none;stroke-opacity:1"
       d="m 70.009992,14.073109 5.248978,4.569879 -0.0012,-4.303145 c -0.01388,-0.02634 -3.199431,-3.41565 -3.199431,-3.41565 z m 10.49563,0 -5.248978,4.569879 0.0012,-4.303145 c 0.01388,-0.02634 3.199431,-3.41565 3.199431,-3.41565 z"
       id="path18866"
       transform="matrix(1.3679987,0,0,1.3679987,-86.586748,-11.654547)"
       class="UnoptimicedTransforms" />
  </g>
  <g
     id="g16398"
     style="display:none">
    <path
       style="display:inline;fill:url(#linearGradient19062);fill-opacity:1;fill-rule:evenodd;stroke:#000000;stroke-width:0.0893576;stroke-dasharray:none;stroke-opacity:0.5"
       d="m 16.392578,17.71875 -1.818359,1.675781 -1.828125,-1.666015 -0.449219,11.972656 h 2.304687 l 2.304688,-0.01172 z"
       id="path16394"
       transform="matrix(1.1497395,0,0,1.0892743,1.5916832,-1.924953)"
       class="UnoptimicedTransforms" />
    <path
       style="fill:url(#linearGradient19064);fill-opacity:1;fill-rule:evenodd;stroke:#000000;stroke-width:0.1;stroke-linecap:square;stroke-linejoin:miter;stroke-dasharray:none;stroke-opacity:0.5"
       d="m 72.058594,10.923828 -2.048828,3.148438 5.248046,4.570312 5.248047,-4.570312 -2.048828,-3.148438 c 0,0 -3.185338,3.389676 -3.199219,3.416016 -0.01388,-0.02634 -3.199218,-3.416016 -3.199218,-3.416016 z"
       id="path16396"
       transform="translate(-56.960781,-0.33408506)"
       class="UnoptimicedTransforms" />
  </g>
  <g
     id="g12184"
     style="display:none">
    <path
       style="display:inline;fill:url(#linearGradient7346);fill-opacity:1;fill-rule:evenodd;stroke:none;stroke-width:1;stroke-dasharray:none"
       d="m 12.746125,17.728913 -0.450023,11.972603 h 2.304643 l -0.02487,-10.305191 z m 3.646372,-0.0096 0.512859,11.970076 -2.304611,0.0121 -0.02922,-10.30518 z"
       id="path12180"
       transform="matrix(1.1497395,0,0,1.0892743,1.5916832,-1.924953)"
       class="UnoptimicedTransforms" />
    <path
       style="display:inline;fill:url(#linearGradient7344);fill-opacity:1;fill-rule:evenodd;stroke:none;stroke-width:1.09047;stroke-linecap:square;stroke-linejoin:miter;stroke-dasharray:none"
       d="m 70.009992,14.073109 5.248978,4.569879 -0.0012,-4.303145 c -0.01388,-0.02634 -3.199431,-3.41565 -3.199431,-3.41565 z m 10.49563,0 -5.248978,4.569879 0.0012,-4.303145 c 0.01388,-0.02634 3.199431,-3.41565 3.199431,-3.41565 z"
       id="path12182"
       transform="translate(-56.960781,-0.33408506)"
       class="UnoptimicedTransforms" />
  </g>
</svg>
