<?xml version="1.0" encoding="UTF-8" standalone="no"?>
<svg
   width="182.58789mm"
   height="197.01424mm"
   viewBox="0 0 182.58789 197.01424"
   version="1.1"
   id="svg5"
   xml:space="preserve"
   sodipodi:docname="Cynegatelogovector1.svg"
   inkscape:export-filename="Cynegatelogovector1.svg"
   inkscape:export-xdpi="96"
   inkscape:export-ydpi="96"
   xmlns:inkscape="http://www.inkscape.org/namespaces/inkscape"
   xmlns:sodipodi="http://sodipodi.sourceforge.net/DTD/sodipodi-0.dtd"
   xmlns="http://www.w3.org/2000/svg"
   xmlns:svg="http://www.w3.org/2000/svg"><sodipodi:namedview
     id="namedview7"
     pagecolor="#505050"
     bordercolor="#eeeeee"
     borderopacity="1"
     inkscape:showpageshadow="0"
     inkscape:pageopacity="0"
     inkscape:pagecheckerboard="0"
     inkscape:deskcolor="#505050"
     inkscape:document-units="mm"
     showgrid="false"
     inkscape:zoom="0.23384891"
     inkscape:rotation="-1"
     inkscape:cx="-464.87879"
     inkscape:cy="229.12294"
     inkscape:window-width="1366"
     inkscape:window-height="705"
     inkscape:window-x="-8"
     inkscape:window-y="-8"
     inkscape:window-maximized="1"
     inkscape:current-layer="svg5" /><defs
     id="defs2"><inkscape:path-effect
       effect="mirror_symmetry"
       start_point="96.579482,3.6498121"
       end_point="96.579482,41.223874"
       center_point="96.579482,22.436843"
       id="path-effect1931"
       is_visible="true"
       lpeversion="1.2"
       lpesatellites=""
       mode="free"
       discard_orig_path="false"
       fuse_paths="false"
       oposite_fuse="false"
       split_items="false"
       split_open="false"
       link_styles="false" /><inkscape:path-effect
       effect="mirror_symmetry"
       start_point="98.266711,34.930583"
       end_point="98.266711,102.22936"
       center_point="98.266711,68.579972"
       id="path-effect1927"
       is_visible="true"
       lpeversion="1.2"
       lpesatellites=""
       mode="free"
       discard_orig_path="false"
       fuse_paths="false"
       oposite_fuse="false"
       split_items="false"
       split_open="false"
       link_styles="false" /><inkscape:path-effect
       effect="mirror_symmetry"
       start_point="98.467523,69.677336"
       end_point="98.467523,115.28966"
       center_point="98.467523,92.483498"
       id="path-effect1923"
       is_visible="true"
       lpeversion="1.2"
       lpesatellites=""
       mode="free"
       discard_orig_path="false"
       fuse_paths="true"
       oposite_fuse="false"
       split_items="false"
       split_open="false"
       link_styles="true" /><inkscape:path-effect
       effect="mirror_symmetry"
       start_point="98.375386,81.615839"
       end_point="98.375386,152.22924"
       center_point="98.375386,116.92254"
       id="path-effect1919"
       is_visible="true"
       lpeversion="1.2"
       lpesatellites=""
       mode="free"
       discard_orig_path="false"
       fuse_paths="false"
       oposite_fuse="false"
       split_items="false"
       split_open="false"
       link_styles="false" /><inkscape:path-effect
       effect="mirror_symmetry"
       start_point="98.282431,117.18355"
       end_point="98.282431,191.99927"
       center_point="98.282431,154.59141"
       id="path-effect1866"
       is_visible="true"
       lpeversion="1.2"
       lpesatellites=""
       mode="free"
       discard_orig_path="false"
       fuse_paths="true"
       oposite_fuse="false"
       split_items="false"
       split_open="false"
       link_styles="true" /><inkscape:path-effect
       effect="mirror_symmetry"
       start_point="98.366514,131.15669"
       end_point="98.366514,200.29821"
       center_point="98.366514,165.72745"
       id="path-effect1862"
       is_visible="true"
       lpeversion="1.2"
       lpesatellites=""
       mode="free"
       discard_orig_path="false"
       fuse_paths="false"
       oposite_fuse="false"
       split_items="false"
       split_open="false"
       link_styles="false" /></defs><g
     inkscape:groupmode="layer"
     id="layer3"
     inkscape:label="Ebene 2"
     transform="translate(-7.0814421,-3.4664678)"><path
       style="opacity:1;fill:#000000;fill-opacity:1;fill-rule:evenodd;stroke:#000000;stroke-width:0.365001;stroke-linecap:round;stroke-linejoin:round;stroke-opacity:1"
       d="m 22.676157,149.30762 1.400071,-5.32528 12.050615,-11.8006 4.425225,-1.02505 56.114359,61.18616 -0.353571,7.28358 -4.914643,0.67178 z m 151.380713,0 -1.40007,-5.32528 -12.05062,-11.8006 -4.42522,-1.02505 -56.11436,61.18616 0.35357,7.28358 4.91464,0.67178 z"
       id="path1860"
       inkscape:path-effect="#path-effect1862"
       inkscape:original-d="m 22.676157,149.30762 1.400071,-5.32528 12.050615,-11.8006 4.425225,-1.02505 56.114359,61.18616 -0.353571,7.28358 -4.914643,0.67178 z"
       class="UnoptimicedTransforms" /><path
       style="opacity:1;fill:#000000;fill-opacity:1;fill-rule:evenodd;stroke:#000000;stroke-width:0.365001;stroke-linecap:round;stroke-linejoin:round;stroke-opacity:1"
       d="m 98.282431,190.95514 -1.969575,-0.0973 -51.338571,-64.06714 0.212142,-5.51571 5.303573,-3.32357 47.792431,-1.75792 47.792429,1.75792 5.30357,3.32357 0.21215,5.51571 -51.33857,64.06714 z"
       id="path1864"
       inkscape:path-effect="#path-effect1866"
       inkscape:original-d="M 98.287601,190.9554 96.312856,190.85785 44.974285,126.79071 45.186427,121.275 50.49,117.95143 98.343738,116.19125"
       class="UnoptimicedTransforms"
       sodipodi:nodetypes="cccccc" /><path
       style="opacity:1;fill:#000000;fill-opacity:1;fill-rule:evenodd;stroke:#000000;stroke-width:0.365001;stroke-linecap:round;stroke-linejoin:round;stroke-opacity:1"
       d="m 34.92315,125.21295 c 0,0 -13.171281,16.01223 -14.312892,16.87759 -4.175681,3.29365 -7.001071,0.19794 -8.028766,-3.09297 C 12.44871,138.79928 7.2530304,77.331655 7.2665489,76.799571 7.1670161,76.123772 12.66376,68.625841 17.780819,76.350767 18.047649,76.886256 34.92315,125.21295 34.92315,125.21295 Z m 126.90447,0 c 0,0 13.17128,16.01223 14.31289,16.87759 4.17569,3.29365 7.00108,0.19794 8.02877,-3.09297 0.13278,-0.19829 5.32846,-61.665915 5.31494,-62.197999 0.0995,-0.675799 -5.39721,-8.17373 -10.51427,-0.448804 -0.26683,0.535489 -17.14233,48.862183 -17.14233,48.862183 z"
       id="path1917"
       sodipodi:nodetypes="cccccc"
       inkscape:path-effect="#path-effect1919"
       inkscape:original-d="m 34.92315,125.21295 c 0,0 -13.171281,16.01223 -14.312892,16.87759 -4.175681,3.29365 -7.001071,0.19794 -8.028766,-3.09297 C 12.44871,138.79928 7.2530304,77.331655 7.2665489,76.799571 7.1670161,76.123772 12.66376,68.625841 17.780819,76.350767 18.047649,76.886256 34.92315,125.21295 34.92315,125.21295 Z"
       class="UnoptimicedTransforms" /><path
       style="opacity:1;fill:#000000;fill-opacity:1;fill-rule:evenodd;stroke:#000000;stroke-width:0.365001;stroke-linecap:round;stroke-linejoin:round;stroke-opacity:1"
       d="m 98.467523,69.677337 1.504432,0.164092 c 0,0 55.606705,36.210481 55.890785,36.476211 3.02571,5.46989 -1.34805,9.04382 -2.88649,8.97202 -0.31734,-0.0122 -53.933861,-5.33997 -54.499841,-5.39797 -0.583752,0.058 -54.200268,5.38578 -54.517611,5.39797 -1.538441,0.0718 -5.912206,-3.50213 -2.886496,-8.97202 0.284088,-0.26573 55.890789,-36.476211 55.890789,-36.476211 l 1.504432,-0.164092"
       id="path1921"
       inkscape:path-effect="#path-effect1923"
       inkscape:original-d="m 98.481211,109.89121 c 0,0 -54.203333,5.38619 -54.522413,5.39845 -1.538441,0.0718 -5.912206,-3.50213 -2.886496,-8.97202 0.284088,-0.26573 55.890789,-36.476211 55.890789,-36.476211 l 1.504432,-0.164092"
       class="UnoptimicedTransforms"
       sodipodi:nodetypes="ccccc" /><path
       style="opacity:1;fill:#000000;fill-opacity:1;fill-rule:evenodd;stroke:#000000;stroke-width:0.365001;stroke-linecap:round;stroke-linejoin:round;stroke-opacity:1"
       d="m 90.029071,46.067665 c -0.566284,0.960814 -45.7734,51.053423 -50.365567,56.415005 -4.968594,2.28935 -8.047057,-0.56333 -9.580575,-5.13075 -0.397354,-0.9161 -17.252224,-43.021527 -17.555657,-43.934464 -0.818041,-2.207299 1.012043,-5.660415 6.851434,-6.238317 0.728735,-0.02664 66.060256,-11.152393 67.590213,-11.188019 7.002276,0.72333 3.524293,9.641176 3.060152,10.076545 z m 16.475279,0 c 0.56628,0.960814 45.7734,51.053423 50.36557,56.415005 4.96859,2.28935 8.04705,-0.56333 9.58057,-5.13075 0.39736,-0.9161 17.25223,-43.021527 17.55566,-43.934464 0.81804,-2.207299 -1.01204,-5.660415 -6.85143,-6.238317 -0.72874,-0.02664 -66.06026,-11.152393 -67.59022,-11.188019 -7.00227,0.72333 -3.52429,9.641176 -3.06015,10.076545 z"
       id="path1925"
       sodipodi:nodetypes="ccccccc"
       inkscape:path-effect="#path-effect1927"
       inkscape:original-d="m 90.029071,46.067665 c -0.566284,0.960814 -45.7734,51.053423 -50.365567,56.415005 -4.968594,2.28935 -8.047057,-0.56333 -9.580575,-5.13075 -0.397354,-0.9161 -17.252224,-43.021527 -17.555657,-43.934464 -0.818041,-2.207299 1.012043,-5.660415 6.851434,-6.238317 0.728735,-0.02664 66.060256,-11.152393 67.590213,-11.188019 7.002276,0.72333 3.524293,9.641176 3.060152,10.076545 z"
       class="UnoptimicedTransforms" /><path
       style="opacity:1;fill:#000000;fill-opacity:1;fill-rule:evenodd;stroke:#000000;stroke-width:0.365001;stroke-linecap:round;stroke-linejoin:round;stroke-opacity:1"
       d="m 87.31088,30.583219 c 0,0 -64.097876,10.599238 -64.458319,10.636279 -4.37464,0.1839 -8.050552,-5.470449 -3.526494,-9.012402 C 19.83834,32.034968 88.236077,4.053802 88.629507,3.8096401 91.320244,3.2949218 95.775302,3.7875551 96.579482,8.8551278 96.385628,9.541234 90.386015,28.175918 90.386015,28.175918 Z m 18.5372,0 c 0,0 64.09788,10.599238 64.45832,10.636279 4.37464,0.1839 8.05055,-5.470449 3.5265,-9.012402 C 173.32062,32.034968 104.92289,4.053802 104.52946,3.8096401 101.83872,3.2949218 97.383662,3.7875551 96.579482,8.8551278 96.773336,9.541234 102.77295,28.175918 102.77295,28.175918 Z"
       id="path1929"
       sodipodi:nodetypes="ccccccc"
       inkscape:path-effect="#path-effect1931"
       inkscape:original-d="m 87.31088,30.583219 c 0,0 -64.097876,10.599238 -64.458319,10.636279 -4.37464,0.1839 -8.050552,-5.470449 -3.526494,-9.012402 C 19.83834,32.034968 88.236077,4.053802 88.629507,3.8096401 91.320244,3.2949218 95.775302,3.7875551 96.579482,8.8551278 96.385628,9.541234 90.386015,28.175918 90.386015,28.175918 Z"
       class="UnoptimicedTransforms" /></g></svg>
