<svg xmlns="http://www.w3.org/2000/svg" viewBox="0 0 58.806 22.759">
	<!--
	this information is in german:
	
		INFOMARTION:
		DIGITALE UNTERZEICHNUNG. DIESE VECTROGRAFIK IST KEINE UNTERSCHRIEFT UND KANN SIE NICHT ERSETZTEN SIE SOLL EINE
		ART IN KÜNSTLERICHER ART SCHRIEFT AUSGEDRÜCKTE VERSION DES NAMENS VALENTIN DARSTELLEN. DISES BILD IST ÖFFENTLICH
		RUNTERLADBAR UND SOMIT NICHT SICHER. DIESES BILD SOLL EINE ART FÖRMLICHE UNTERZEICHNUNG SYMBOLISCH UNTERSTÜZEN ABER
		NICHT ERSETZEN. JEDE ANWENDUNG DAVON IST NICHT ZU WERTEN UND SOLL NUR SYMBOLICH UND AUS DESIGN GRÜNDEN ANGEWENDET WERDEN.
		UNBEFUGTE NUTZUNG IST NICHT GESTATTET, DER URHEBER UND DER GEISTIGE URHEBER LIEGT BEI CONTROLLER.
	-->
  <g stroke="#000" stroke-linecap="round" stroke-linejoin="round" stroke-width="2.559" paint-order="markers fill stroke">
    <path fill="none" d="M1.28 3.88c2.44 5.737 3.459 11.474 4.61 17.212 3.24-6.184 6.555-12.53 10.064-17.431 2.16 6.115 3.13 11.436 4.575 17.074l.148-.256-4.29-7.43c-.125.46-2.6.334-5.908 0 6.79-.104 13.754-.15 19-.77"/>
    <path fill="none" d="M31.281 2.68c-1.25-.722-5.005-.109-7.8.2.296 5.023.73 9.53 0 18.4 4-.377 8-.422 12 0-.266-3.18-.533-7.955-.8-13.8 3.455 4.974 4.364 9.099 6.4 13.6.478-4.238.489-7.272.2-18.4l9.601-1.4-4.4 2v18.2l5.4-11.8 1.08 11.8s3.118-9.117 4.565-12.13"/>
    <path fill="#fff" d="m53.554 3.849.456-1.339"/>
  </g>
</svg>
